<svg width="417" height="400" viewBox="0 0 417 400" fill="none" xmlns="http://www.w3.org/2000/svg">
<path opacity="0.03" d="M65.4485 400C21.8536 400 -9.78225 357.997 2.77749 316.224C9.88012 292.6 23.9908 269.549 50.825 255.569C124.258 217.31 117.789 227.801 152.403 163.511C187.016 99.2207 280.83 83.9694 329.987 129.256C399.513 193.308 352.746 244.334 396.745 288.361C397.203 288.82 397.655 289.282 398.102 289.745C437.856 331.05 407.94 400 350.633 400H65.4485Z" fill="#292A2E"/>
<path d="M251.542 173.275V139.007H87.8849V173.274C87.8867 191.193 93.7602 208.616 104.605 222.875C115.45 237.133 130.669 247.44 147.928 252.215C150.461 252.927 152.692 254.448 154.282 256.546C155.871 258.645 156.732 261.205 156.732 263.838C156.732 266.471 155.871 269.032 154.282 271.131C152.692 273.229 150.461 274.75 147.928 275.462C130.668 280.237 115.449 290.544 104.604 304.803C93.7591 319.062 87.886 336.486 87.8849 354.405V388.673H251.542V354.405C251.54 336.487 245.667 319.063 234.822 304.805C223.977 290.546 208.758 280.24 191.499 275.464C188.966 274.753 186.734 273.232 185.144 271.134C183.555 269.035 182.694 266.474 182.694 263.841C182.694 261.208 183.555 258.647 185.144 256.548C186.734 254.45 188.966 252.929 191.499 252.218C208.759 247.443 223.977 237.136 234.822 222.878C245.667 208.619 251.54 191.195 251.542 173.277" fill="#367CFF"/>
<path opacity="0.8" d="M251.542 173.275V139.007H87.8849V173.274C87.8867 191.193 93.7602 208.616 104.605 222.875C115.45 237.133 130.669 247.44 147.928 252.215C150.461 252.927 152.692 254.448 154.282 256.546C155.871 258.645 156.732 261.205 156.732 263.838C156.732 266.471 155.871 269.032 154.282 271.131C152.692 273.229 150.461 274.75 147.928 275.462C130.668 280.237 115.449 290.544 104.604 304.803C93.7591 319.062 87.886 336.486 87.8849 354.405V388.673H251.542V354.405C251.54 336.487 245.667 319.063 234.822 304.805C223.977 290.546 208.758 280.24 191.499 275.464C188.966 274.753 186.734 273.232 185.144 271.134C183.555 269.035 182.694 266.474 182.694 263.841C182.694 261.208 183.555 258.647 185.144 256.548C186.734 254.45 188.966 252.929 191.499 252.218C208.759 247.443 223.977 237.136 234.822 222.878C245.667 208.619 251.54 191.195 251.542 173.277" fill="white"/>
<path d="M252.059 389.191H87.368V354.406C87.3962 336.38 93.3171 318.859 104.227 304.515C115.137 290.172 130.437 279.793 147.792 274.964C150.217 274.283 152.352 272.828 153.874 270.819C155.395 268.811 156.218 266.36 156.218 263.84C156.218 261.32 155.395 258.869 153.874 256.861C152.352 254.852 150.217 253.397 147.792 252.716C130.437 247.886 115.137 237.508 104.227 223.164C93.3175 208.821 87.3966 191.3 87.368 173.274V138.49H252.059V173.275C252.031 191.3 246.11 208.821 235.201 223.164C224.291 237.508 208.992 247.886 191.637 252.716C189.212 253.397 187.077 254.852 185.556 256.861C184.034 258.869 183.211 261.32 183.211 263.84C183.211 266.36 184.034 268.811 185.556 270.819C187.077 272.828 189.212 274.283 191.637 274.964C208.992 279.794 224.291 290.172 235.201 304.516C246.11 318.859 252.031 336.381 252.059 354.406V389.191ZM88.404 388.156H251.025V354.406C250.997 336.607 245.151 319.306 234.379 305.143C223.606 290.979 208.499 280.731 191.362 275.962C188.719 275.221 186.391 273.635 184.732 271.446C183.074 269.258 182.176 266.587 182.176 263.84C182.176 261.093 183.074 258.422 184.732 256.233C186.391 254.045 188.719 252.459 191.362 251.718C208.499 246.949 223.606 236.701 234.379 222.538C245.151 208.374 250.997 191.073 251.025 173.275V139.524H88.4019V173.274C88.4302 191.073 94.2767 208.374 105.049 222.538C115.822 236.701 130.93 246.949 148.067 251.718C150.71 252.46 153.037 254.045 154.696 256.234C156.354 258.422 157.251 261.094 157.251 263.84C157.251 266.586 156.354 269.258 154.696 271.446C153.037 273.635 150.71 275.22 148.067 275.962C130.93 280.73 115.822 290.978 105.049 305.142C94.2763 319.305 88.4299 336.607 88.4019 354.406L88.404 388.156Z" fill="#292A2E"/>
<path d="M261.05 132.769C261.05 134.4 260.413 135.965 259.274 137.13C258.135 138.296 256.585 138.968 254.956 139.004C254.909 139.007 254.864 139.007 254.816 139.007H84.8886C84.8405 139.007 84.7961 139.007 84.7485 139.004C83.1079 138.967 81.5479 138.285 80.4071 137.104C79.2664 135.924 78.6369 134.341 78.6554 132.699C78.6738 131.057 79.3387 129.488 80.5057 128.334C81.6726 127.179 83.2476 126.532 84.8886 126.532H254.814C255.633 126.532 256.443 126.693 257.2 127.006C257.956 127.32 258.644 127.779 259.223 128.358C259.802 128.937 260.261 129.625 260.575 130.382C260.888 131.139 261.05 131.95 261.05 132.769Z" fill="#292A2E"/>
<path d="M172.605 331.19V257.127C172.542 254.313 173.404 251.557 175.058 249.28C176.712 247.004 179.067 245.335 181.762 244.528C210.719 236.554 237.659 210.561 238.983 180.703C239.053 179.102 237.648 178.047 236.046 178.047H103.38C101.777 178.047 100.372 179.102 100.443 180.703C101.767 210.561 128.706 236.554 157.664 244.528C161.762 245.662 166.822 250.687 166.822 257.312V331.195C166.822 336.524 164.817 341.048 161.053 344.815C157.944 347.926 111.134 388.672 111.134 388.672H228.294C228.294 388.672 181.05 347.461 178.449 344.856C174.684 341.091 172.605 336.517 172.605 331.19Z" fill="#FAFAFA"/>
<path d="M261.094 393.28C261.094 394.91 260.457 396.476 259.318 397.641C258.179 398.807 256.629 399.479 255 399.514C254.953 399.517 254.908 399.517 254.86 399.517H84.9331C84.8855 399.517 84.8411 399.517 84.7935 399.514C83.1529 399.478 81.593 398.795 80.4522 397.615C79.3115 396.434 78.682 394.851 78.7003 393.209C78.7187 391.567 79.3835 389.999 80.5504 388.844C81.7173 387.69 83.2921 387.042 84.9331 387.042H254.86C256.514 387.043 258.099 387.7 259.268 388.87C260.437 390.039 261.094 391.626 261.094 393.28Z" fill="#292A2E"/>
<path d="M303.275 399.141C343.397 399.141 375.923 366.594 375.923 326.445C375.923 286.296 343.397 253.749 303.275 253.749C263.153 253.749 230.627 286.296 230.627 326.445C230.627 366.594 263.153 399.141 303.275 399.141Z" fill="white"/>
<path d="M324.468 396.364C285.939 408.055 245.087 386.205 233.401 347.651C221.716 309.097 243.554 268.218 282.082 256.527C320.611 244.836 361.464 266.684 373.148 305.238C384.831 343.792 362.996 384.671 324.468 396.364ZM282.296 257.231C244.157 268.806 222.539 309.272 234.107 347.436C245.674 385.601 286.114 407.233 324.254 395.658C362.393 384.083 384.011 343.617 372.443 305.452C360.876 267.288 320.436 245.656 282.296 257.231Z" fill="#292A2E"/>
<path opacity="0.45" d="M303.275 390.447C338.599 390.447 367.235 361.792 367.235 326.445C367.235 291.097 338.599 262.442 303.275 262.442C267.951 262.442 239.315 291.097 239.315 326.445C239.315 361.792 267.951 390.447 303.275 390.447Z" fill="#367CFF"/>
<path d="M303.275 330.293C305.399 330.293 307.121 328.57 307.121 326.445C307.121 324.319 305.399 322.596 303.275 322.596C301.151 322.596 299.429 324.319 299.429 326.445C299.429 328.57 301.151 330.293 303.275 330.293Z" fill="#292A2E"/>
<path d="M350.685 352.106C350.638 352.121 350.59 352.125 350.542 352.121C350.493 352.116 350.447 352.101 350.404 352.078L303.101 326.77C303.043 326.738 302.993 326.691 302.959 326.634C302.925 326.577 302.906 326.512 302.906 326.445L302.89 289.129C302.89 289.031 302.929 288.938 302.998 288.869C303.068 288.799 303.161 288.76 303.259 288.76C303.357 288.76 303.451 288.799 303.52 288.869C303.589 288.938 303.628 289.031 303.628 289.129L303.644 326.224L350.751 351.429C350.816 351.463 350.868 351.516 350.903 351.58C350.937 351.644 350.952 351.718 350.944 351.79C350.937 351.863 350.909 351.932 350.863 351.988C350.816 352.044 350.754 352.086 350.685 352.107V352.106Z" fill="#292A2E"/>
<path d="M126.639 198.536C126.639 198.536 128.739 206.23 122.356 209.858C115.974 213.486 119.978 218.027 119.978 218.027L145.103 205.658L138.928 193.096L126.639 198.536Z" fill="#367CFF"/>
<path d="M123.981 203.623L105.048 132.141C103.611 124.245 105.772 120.822 109.105 117.496C114.958 111.654 139.212 99.2203 139.212 99.2203L168.308 99.1411C176.023 99.1411 183.61 106.754 183.61 114.474C183.61 122.193 175.766 128.74 168.049 128.74L132.219 132.321L141.931 197.772L123.981 203.623Z" fill="#262626"/>
<path d="M141.931 197.77L138.108 172.003L118.737 183.827L123.981 203.624L141.931 197.77Z" fill="#0C0C0C"/>
<path d="M146.322 113.686C146.322 113.686 134.091 116.414 121.977 128.535C114.633 135.885 115.235 149.185 116.337 174.764L128.368 156.981L141.564 133.166L146.322 113.686Z" fill="#0C0C0C"/>
<path d="M110.663 222.093C110.663 222.093 109.153 229.924 101.825 230.361C94.498 230.797 96.0871 236.639 96.0871 236.639H124.089V222.639L110.663 222.093Z" fill="#367CFF"/>
<path d="M188.672 99.1324L168.912 99.0393L168.905 99.298H162.921C162.921 99.298 147.934 113.099 135.867 121.795C127.09 128.12 121.736 134.151 121.273 140.723C120.143 156.745 107.405 225.075 107.405 225.075L126.576 227.98L143.398 146.32C143.398 146.32 169.705 134.185 175.79 129.961C181.52 125.985 185.567 124.447 187.463 120.108C190.738 112.614 188.672 99.1324 188.672 99.1324Z" fill="#262626"/>
<path d="M166.504 104.114L134.448 104.538L152.43 115.286L167.395 107.554C167.756 107.36 168.041 107.051 168.205 106.675C168.369 106.3 168.403 105.88 168.3 105.484C168.197 105.087 167.964 104.736 167.639 104.488C167.313 104.239 166.913 104.108 166.504 104.114Z" fill="#292A2E"/>
<path opacity="0.2" d="M166.504 104.114L134.448 104.538L152.43 115.286L167.395 107.554C167.756 107.36 168.041 107.051 168.205 106.675C168.369 106.3 168.403 105.88 168.3 105.484C168.197 105.087 167.964 104.736 167.639 104.488C167.313 104.239 166.913 104.108 166.504 104.114Z" fill="white"/>
<path d="M134.632 46.5679L125.566 75.9655L107.405 99.7585L118.014 111.944L139.619 87.8139C140.615 87.0265 141.394 85.9981 141.882 84.8259L142.219 84.0111L154.697 53.7973L134.632 46.5679Z" fill="#367CFF"/>
<path d="M148.599 15.362C148.599 15.362 144.946 12.6026 144.041 6.25113C143.34 1.33309 147.873 4.51919 147.873 4.51919C147.873 4.51919 147.403 0.973557 149.984 1.32533C152.564 1.6771 154.011 5.40223 154.011 5.40223" fill="#0C0C0C"/>
<path d="M163.329 1.73999C163.329 1.73999 176.14 3.11448 171.509 20.4846L170.375 20.5607L168.074 20.7159" fill="#0C0C0C"/>
<path d="M150.745 38.6258C150.801 38.6186 151.426 48.9963 163.474 48.0926C171.815 47.4671 174.788 38.6124 174.98 38.6124C174.08 38.421 172.969 38.1308 172.527 38.0309C171.565 37.8074 170.693 37.2959 170.028 36.5645C169.363 35.8331 168.936 34.9164 168.805 33.9364C168.561 32.4657 168.975 24.9404 168.847 23.4521L156.045 26.3113C156.223 29.4545 157.476 36.7413 153.087 38.0309C152.357 38.2435 151.571 38.4396 150.745 38.6258Z" fill="#E98862"/>
<path opacity="0.52" d="M155.866 35.0521C156.067 34.4053 156.196 33.7385 156.251 33.0635C156.392 31.5235 156.364 29.9727 156.168 28.4388C158.77 28.0868 161.221 27.0115 163.243 25.335C163.481 26.2144 164.789 30.0523 164.427 30.8872C163.741 32.4676 160.526 35.0521 155.866 35.0521Z" fill="#0C0C0C"/>
<path d="M158.507 32.9978C163.559 32.5446 169.604 29.3513 169.691 22.4908L169.77 16.3001C169.857 9.43959 166.327 3.833 159.871 3.74971C153.416 3.66643 148.52 9.168 148.433 16.0301L148.398 18.7718C148.403 19.7131 148.472 20.653 148.604 21.5849C148.936 24.0499 149.449 27.7989 151.121 30.3342C152.698 32.7257 155.281 33.2875 158.507 32.9978Z" fill="#E98862"/>
<path opacity="0.52" d="M156.164 26.7271C155.122 26.7744 154.083 26.5757 153.131 26.1472C153.094 26.1291 153.064 26.097 153.049 26.0577C153.034 26.0183 153.035 25.9747 153.052 25.936C153.068 25.8973 153.099 25.8665 153.138 25.8501C153.176 25.8336 153.22 25.8327 153.259 25.8476C155.309 26.7224 157.171 26.5941 158.642 25.4772C158.672 25.4537 158.703 25.4318 158.735 25.4115C158.772 25.39 158.817 25.3843 158.859 25.3956C158.9 25.4069 158.936 25.4343 158.957 25.4718C158.979 25.5093 158.985 25.5539 158.973 25.5956C158.962 25.6374 158.935 25.673 158.897 25.6945C158.885 25.7018 158.866 25.7168 158.839 25.7369C158.066 26.3262 157.134 26.671 156.164 26.7271Z" fill="#0C0C0C"/>
<path opacity="0.52" d="M156.213 28.2727C156.024 28.2842 155.836 28.2797 155.648 28.2593C155.605 28.2547 155.566 28.2333 155.539 28.1997C155.511 28.1661 155.499 28.123 155.503 28.08C155.508 28.037 155.529 27.9976 155.563 27.9704C155.596 27.9431 155.639 27.9304 155.682 27.9349C155.977 27.9893 156.281 27.98 156.572 27.9076C156.864 27.8353 157.136 27.7016 157.372 27.5154C157.402 27.4848 157.444 27.4676 157.487 27.4675C157.53 27.4675 157.571 27.4846 157.602 27.5151C157.633 27.5457 157.65 27.5871 157.65 27.6303C157.65 27.6735 157.633 27.715 157.602 27.7456C157.214 28.0767 156.723 28.263 156.213 28.2727Z" fill="#0C0C0C"/>
<path d="M150.564 20.0886C151.003 20.0886 151.359 19.7323 151.359 19.2929C151.359 18.8535 151.003 18.4973 150.564 18.4973C150.125 18.4973 149.769 18.8535 149.769 19.2929C149.769 19.7323 150.125 20.0886 150.564 20.0886Z" fill="#0C0C0C"/>
<path d="M158.333 19.6008C158.772 19.6008 159.128 19.2446 159.128 18.8051C159.128 18.3657 158.772 18.0095 158.333 18.0095C157.894 18.0095 157.538 18.3657 157.538 18.8051C157.538 19.2446 157.894 19.6008 158.333 19.6008Z" fill="#0C0C0C"/>
<path d="M169.264 24.5756C171.225 24.601 172.842 22.5209 172.867 20.5577C172.892 18.5945 171.316 17.4921 169.352 17.4668L168.325 18.772L167.576 24.557L169.264 24.5756Z" fill="#E98862"/>
<path d="M167.312 21.4215C167.312 21.4215 166.649 11.7137 163.708 11.1142C161.748 10.7148 156.997 13.4938 152.596 12.6558C150.671 12.2885 148.843 12.7654 148.658 13.6754C148.584 14.0375 147.384 8.85768 150.399 4.92769C152.8 1.79901 160.655 0.915451 164.229 1.94179C174.125 4.78233 169.758 17.8925 169.758 17.8925L169.317 21.2395L167.312 21.4215Z" fill="#0C0C0C"/>
<g opacity="0.52">
<path opacity="0.52" d="M154.978 24.4359H154.966C154.333 24.4297 153.274 24.3485 153.278 23.8751C153.282 23.483 154.398 19.2607 154.525 18.7807C154.539 18.7432 154.566 18.7123 154.602 18.6939C154.638 18.6756 154.679 18.6712 154.717 18.6815C154.756 18.6918 154.789 18.7161 154.811 18.7498C154.833 18.7834 154.841 18.8239 154.835 18.8635C154.339 20.7335 153.601 23.6118 153.598 23.8782C154.029 24.0666 154.499 24.1473 154.967 24.1136C155.01 24.1124 155.051 24.1281 155.082 24.1574C155.113 24.1867 155.131 24.2272 155.133 24.2698C155.134 24.3125 155.118 24.3539 155.089 24.385C155.06 24.416 155.019 24.4341 154.977 24.4354L154.978 24.4359Z" fill="#0C0C0C"/>
</g>
<path d="M152.821 14.9784C152.157 14.7956 151.456 14.7956 150.791 14.9784C150.465 15.0663 150.153 15.2027 149.867 15.383C149.585 15.5599 149.326 15.7715 149.096 16.013C149.054 16.0561 149.029 16.1139 149.028 16.1744C149.027 16.2349 149.05 16.2935 149.091 16.3379C149.132 16.3822 149.189 16.409 149.249 16.4126C149.309 16.4161 149.369 16.3963 149.415 16.3571L149.429 16.3446C149.641 16.1476 149.877 15.9782 150.132 15.8403C150.382 15.7034 150.651 15.605 150.931 15.5485C151.481 15.4334 152.051 15.4654 152.585 15.6411L152.608 15.6489C152.696 15.68 152.793 15.6749 152.877 15.6345C152.961 15.5942 153.026 15.5221 153.057 15.4339C153.088 15.3458 153.083 15.2489 153.043 15.1645C153.003 15.0801 152.931 15.0153 152.843 14.9841L152.821 14.9784Z" fill="#0C0C0C"/>
<path d="M157.526 15.3779C158.032 15.1323 158.593 15.0252 159.154 15.0675C159.438 15.0858 159.718 15.1474 159.984 15.2501C160.255 15.3527 160.511 15.489 160.748 15.6557L160.763 15.6655C160.814 15.6986 160.876 15.7107 160.935 15.6994C160.995 15.688 161.048 15.654 161.083 15.6046C161.117 15.5551 161.132 15.494 161.123 15.4341C161.114 15.3741 161.082 15.3201 161.034 15.2832C160.774 15.0741 160.489 14.8987 160.185 14.7612C159.878 14.6206 159.551 14.527 159.216 14.4834C158.533 14.3905 157.838 14.4838 157.204 14.7535C157.118 14.7906 157.051 14.8604 157.017 14.9473C156.982 15.0342 156.984 15.1312 157.021 15.217C157.058 15.3027 157.128 15.3702 157.215 15.4045C157.302 15.4389 157.399 15.4373 157.484 15.4001L157.504 15.3908L157.526 15.3779Z" fill="#0C0C0C"/>
<path d="M157.204 4.9723C157.651 2.83344 156.836 0.85343 155.384 0.549829C153.931 0.246228 152.392 1.73401 151.946 3.87287C151.499 6.01173 152.314 7.99172 153.766 8.29532C155.219 8.59892 156.758 7.11116 157.204 4.9723Z" fill="#0C0C0C"/>
<path d="M135.776 61.4321C136.156 65.8928 138.847 93.7256 139.211 99.2204H188.65C188.935 94.2646 190.21 72.5935 191.287 62.9018C192.315 53.6538 193.757 49.445 192.573 46.5714C190.484 41.5018 183.836 39.239 179.333 38.6291C176.583 38.2567 172.448 37.9897 172.448 37.9897C172.448 37.9897 172.098 45.0769 163.75 45.4711C152.385 46.008 153.144 37.9897 153.088 37.9897C151.247 37.9897 141.225 39.3291 138.719 40.9638C137.29 41.8331 136.112 43.0596 135.301 44.5227C134.49 45.9857 134.074 47.6349 134.093 49.3079C134.045 52.6358 135.345 56.3723 135.776 61.4321Z" fill="#367CFF"/>
<path d="M138.283 88.253C138.248 88.2529 138.214 88.2396 138.188 88.2158C138.162 88.192 138.146 88.1593 138.143 88.1242L136.27 66.6875C136.268 66.6689 136.27 66.65 136.275 66.6321C136.281 66.6142 136.289 66.5975 136.301 66.583C136.313 66.5686 136.328 66.5566 136.344 66.5479C136.361 66.5392 136.379 66.5339 136.398 66.5323C136.416 66.53 136.435 66.5315 136.453 66.5368C136.472 66.5421 136.488 66.551 136.503 66.563C136.517 66.575 136.529 66.5899 136.538 66.6067C136.546 66.6234 136.552 66.6418 136.553 66.6606L138.426 88.0973C138.428 88.1158 138.426 88.1343 138.42 88.152C138.415 88.1697 138.406 88.1861 138.394 88.2003C138.382 88.2144 138.367 88.2261 138.351 88.2346C138.335 88.2432 138.317 88.2484 138.298 88.2499L138.283 88.253Z" fill="#0C0C0C"/>
<path d="M141.868 100.705L148.656 95.1938L147.514 95.5171C147.143 95.614 146.749 95.5664 146.412 95.384C146.075 95.2015 145.819 94.8978 145.697 94.5342C145.641 94.3444 145.624 94.145 145.647 93.9483C145.67 93.7516 145.733 93.5617 145.832 93.3901C145.931 93.2186 146.064 93.069 146.222 92.9505C146.381 92.832 146.562 92.7471 146.755 92.7009L161.016 89.2297L162.242 93.7758C162.623 95.1875 162.574 96.6808 162.101 98.0643C161.628 99.4477 160.753 100.658 159.588 101.541L154.304 105.531C154.033 105.744 153.698 105.857 153.354 105.85C153.01 105.844 152.679 105.718 152.416 105.495C152.184 105.289 152.023 105.014 151.958 104.71C151.893 104.406 151.927 104.089 152.055 103.806C152.038 103.801 152.023 103.793 152.009 103.783C151.996 103.772 151.985 103.758 151.977 103.743C151.969 103.728 151.964 103.711 151.963 103.694C151.962 103.677 151.964 103.66 151.969 103.644L150.996 104.382C150.695 104.619 150.315 104.734 149.933 104.702C149.551 104.67 149.196 104.495 148.938 104.21C148.717 103.949 148.595 103.617 148.594 103.274C148.593 102.931 148.713 102.599 148.933 102.336C148.917 102.333 148.903 102.328 148.889 102.321L148.489 102.624C148.218 102.836 147.883 102.949 147.539 102.942C147.195 102.936 146.864 102.81 146.602 102.588C146.319 102.338 146.145 101.988 146.114 101.612C146.084 101.235 146.201 100.862 146.44 100.57C146.434 100.562 146.43 100.553 146.426 100.544L143.599 102.839C143.459 102.952 143.298 103.037 143.125 103.089C142.952 103.14 142.77 103.157 142.591 103.139C142.411 103.12 142.237 103.066 142.079 102.98C141.92 102.894 141.78 102.778 141.666 102.637C141.552 102.497 141.467 102.336 141.416 102.163C141.365 101.99 141.348 101.808 141.366 101.629C141.385 101.449 141.439 101.275 141.525 101.116C141.611 100.957 141.727 100.817 141.867 100.703L141.868 100.705Z" fill="#E98862"/>
<path opacity="0.2" d="M146.599 100.627C146.614 100.621 146.628 100.613 146.64 100.603L149.36 98.3424C149.387 98.3189 149.404 98.2858 149.407 98.2502C149.409 98.2145 149.398 98.1792 149.376 98.1517C149.353 98.1242 149.32 98.1066 149.285 98.1028C149.249 98.099 149.214 98.1092 149.185 98.1313L146.465 100.392C146.44 100.413 146.424 100.442 146.418 100.473C146.412 100.505 146.418 100.538 146.434 100.566C146.45 100.594 146.475 100.615 146.505 100.626C146.536 100.637 146.569 100.638 146.599 100.627Z" fill="#0A0A0A"/>
<path opacity="0.2" d="M148.996 102.335C149.011 102.329 149.024 102.322 149.037 102.312L151.188 100.553C151.214 100.53 151.231 100.497 151.233 100.462C151.236 100.427 151.225 100.392 151.203 100.364C151.181 100.337 151.149 100.319 151.114 100.315C151.079 100.311 151.043 100.32 151.015 100.341L148.863 102.1C148.839 102.12 148.822 102.149 148.816 102.181C148.81 102.212 148.816 102.245 148.832 102.273C148.847 102.301 148.873 102.323 148.903 102.334C148.933 102.345 148.966 102.345 148.996 102.335Z" fill="#0A0A0A"/>
<path opacity="0.2" d="M152.144 103.81C152.16 103.805 152.174 103.796 152.187 103.785L153.184 102.93C153.197 102.918 153.208 102.904 153.216 102.888C153.224 102.872 153.229 102.854 153.231 102.836C153.232 102.818 153.23 102.801 153.224 102.783C153.218 102.766 153.21 102.751 153.198 102.737C153.186 102.724 153.172 102.712 153.156 102.704C153.14 102.696 153.122 102.691 153.104 102.69C153.087 102.689 153.069 102.691 153.052 102.697C153.035 102.702 153.019 102.711 153.005 102.723L152.009 103.578C151.984 103.599 151.968 103.628 151.963 103.659C151.958 103.691 151.964 103.723 151.98 103.75C151.996 103.778 152.021 103.799 152.051 103.81C152.081 103.821 152.114 103.821 152.144 103.811V103.81Z" fill="#0A0A0A"/>
<path d="M201.866 87.2068L201.814 86.975L192.791 47.0388L174.939 51.0769L181.982 82.252L153.766 89.188L157.238 105.121L194.837 97.944C194.923 97.9269 195.044 97.9016 195.133 97.8824C196.275 97.6241 197.356 97.1429 198.313 96.4666C199.27 95.7902 200.084 94.9318 200.709 93.9404C201.334 92.949 201.758 91.844 201.957 90.6887C202.155 89.5333 202.124 88.3501 201.866 87.2068Z" fill="#367CFF"/>
<path d="M153.628 89.2169C153.621 89.1813 153.627 89.1442 153.647 89.1133C153.666 89.0825 153.696 89.0603 153.732 89.0514L181.82 82.149L177.253 61.9636C177.244 61.9272 177.251 61.889 177.271 61.8574C177.291 61.8258 177.323 61.8034 177.359 61.7952C177.395 61.787 177.433 61.7936 177.465 61.8135C177.497 61.8334 177.519 61.8651 177.527 61.9015L182.125 82.2214C182.133 82.2574 182.127 82.2952 182.108 82.3266C182.088 82.3581 182.058 82.3807 182.022 82.3895L153.931 89.2925C153.931 89.2925 154.119 90.114 154.173 90.3897C154.175 90.4251 154.165 90.4602 154.142 90.4876C154.12 90.515 154.087 90.5327 154.052 90.5369C154.017 90.541 153.981 90.5313 153.953 90.5099C153.925 90.4884 153.906 90.4568 153.901 90.4218C153.836 90.1196 153.628 89.2169 153.628 89.2169Z" fill="#0C0C0C"/>
<path d="M154.729 111.463L143.881 78.0964C143.69 77.51 143.319 76.999 142.82 76.6366C142.322 76.2742 141.721 76.079 141.105 76.0789H96.9107C96.45 76.0788 95.9958 76.1878 95.5853 76.3971C95.1748 76.6064 94.8197 76.9099 94.5489 77.2829C94.2782 77.6559 94.0995 78.0878 94.0276 78.5431C93.9557 78.9985 93.9925 79.4644 94.1351 79.9028L104.983 113.269C105.174 113.856 105.545 114.367 106.043 114.729C106.542 115.092 107.142 115.287 107.759 115.287H151.954C152.414 115.287 152.869 115.177 153.279 114.968C153.689 114.759 154.044 114.455 154.315 114.082C154.586 113.709 154.764 113.277 154.836 112.822C154.908 112.367 154.871 111.901 154.729 111.463Z" fill="#292A2E"/>
<path opacity="0.2" d="M154.729 111.463L143.881 78.0964C143.69 77.51 143.319 76.999 142.82 76.6366C142.322 76.2742 141.721 76.079 141.105 76.0789H96.9107C96.45 76.0788 95.9958 76.1878 95.5853 76.3971C95.1748 76.6064 94.8197 76.9099 94.5489 77.2829C94.2782 77.6559 94.0995 78.0878 94.0276 78.5431C93.9557 78.9985 93.9925 79.4644 94.1351 79.9028L104.983 113.269C105.174 113.856 105.545 114.367 106.043 114.729C106.542 115.092 107.142 115.287 107.759 115.287H151.954C152.414 115.287 152.869 115.177 153.279 114.968C153.689 114.759 154.044 114.455 154.315 114.082C154.586 113.709 154.764 113.277 154.836 112.822C154.908 112.367 154.871 111.901 154.729 111.463Z" fill="white"/>
<path d="M123.159 100.321C125.719 100.321 127.794 98.244 127.794 95.6824C127.794 93.1208 125.719 91.0442 123.159 91.0442C120.599 91.0442 118.524 93.1208 118.524 95.6824C118.524 98.244 120.599 100.321 123.159 100.321Z" fill="white"/>
</svg>
