<svg width="228" height="278" viewBox="0 0 228 278" fill="none" xmlns="http://www.w3.org/2000/svg">
<g id="Certificates">
<rect width="228" height="278" fill="#DAE3EA"/>
<path id="Vector" d="M203.263 12.9196C193.765 53.4371 169.405 148.04 144.69 167.825C143.123 169.247 141.243 170.313 139.19 170.945C52.3176 191.281 24.4819 139.408 24.4819 139.408C24.4819 139.408 47.7627 128.507 48.3532 107.199L95.3027 121.196L136.23 32.6961L142.252 27.2981L142.286 27.2657L203.263 12.9196Z" fill="#3F3D56"/>
<path id="Vector_2" d="M2.58328e-05 258.515L0.693148 18.2884C0.712891 13.4263 2.73901 8.77016 6.32696 5.3416C9.91492 1.91304 14.7717 -0.00796049 19.8318 2.47958e-05L208.642 0.503009C213.702 0.522005 218.547 2.46887 222.115 5.91649C225.683 9.36411 227.683 14.0309 227.674 18.8931L226.981 259.12C226.961 263.982 224.935 268.638 221.347 272.067C217.759 275.496 212.903 277.417 207.843 277.409L19.0329 276.906C13.9728 276.887 9.12715 274.94 5.55903 271.492C1.99092 268.045 -0.00828897 263.378 2.58328e-05 258.515V258.515Z" fill="#E6E6E6"/>
<path id="Vector_3" d="M14.6925 185.996L15.1381 31.5558C15.1565 27.0022 17.054 22.6416 20.4142 19.4306C23.7745 16.2197 28.3231 14.4206 33.062 14.4282L195.328 14.8605C200.067 14.8781 204.605 16.7013 207.947 19.9301C211.289 23.1589 213.161 27.5296 213.154 32.0833L212.537 245.853C212.518 250.406 210.621 254.767 207.26 257.978C203.9 261.189 199.351 262.988 194.612 262.98L94.0917 262.713C72.9827 262.634 52.7682 254.512 37.8831 240.13C22.998 225.748 14.6579 206.279 14.6925 185.996V185.996Z" fill="#F2F4F6"/>
<path id="Vector_4" d="M176.735 82.2671H50.2087C48.1953 82.2671 46.2644 81.4986 44.8407 80.1306C43.417 78.7626 42.6172 76.9071 42.6172 74.9725C42.6172 73.0378 43.417 71.1824 44.8407 69.8144C46.2644 68.4464 48.1953 67.6779 50.2087 67.6779H176.735C178.748 67.6779 180.679 68.4464 182.103 69.8144C183.526 71.1824 184.326 73.0378 184.326 74.9725C184.326 76.9071 183.526 78.7626 182.103 80.1306C180.679 81.4986 178.748 82.2671 176.735 82.2671V82.2671Z" fill="#0F9FF2"/>
<path id="Vector_5" d="M78.0444 48.6308H50.2087C48.1953 48.6308 46.2644 47.8623 44.8407 46.4943C43.417 45.1263 42.6172 43.2708 42.6172 41.3362C42.6172 39.4015 43.417 37.5461 44.8407 36.1781C46.2644 34.8101 48.1953 34.0416 50.2087 34.0416H78.0444C80.0578 34.0416 81.9888 34.8101 83.4125 36.1781C84.8361 37.5461 85.636 39.4015 85.636 41.3362C85.636 43.2708 84.8361 45.1263 83.4125 46.4943C81.9888 47.8623 80.0578 48.6308 78.0444 48.6308Z" fill="#0F9FF2"/>
<path id="Vector_6" d="M176.735 115.903H50.2087C48.1953 115.903 46.2644 115.135 44.8407 113.767C43.417 112.399 42.6172 110.543 42.6172 108.609C42.6172 106.674 43.417 104.819 44.8407 103.451C46.2644 102.083 48.1953 101.314 50.2087 101.314H176.735C178.748 101.314 180.679 102.083 182.103 103.451C183.526 104.819 184.326 106.674 184.326 108.609C184.326 110.543 183.526 112.399 182.103 113.767C180.679 115.135 178.748 115.903 176.735 115.903Z" fill="#0F9FF2"/>
<path id="Vector_7" d="M176.735 149.54H50.2087C48.1953 149.54 46.2644 148.771 44.8407 147.403C43.417 146.035 42.6172 144.18 42.6172 142.245C42.6172 140.311 43.417 138.455 44.8407 137.087C46.2644 135.719 48.1953 134.951 50.2087 134.951H176.735C178.748 134.951 180.679 135.719 182.103 137.087C183.526 138.455 184.326 140.311 184.326 142.245C184.326 144.18 183.526 146.035 182.103 147.403C180.679 148.771 178.748 149.54 176.735 149.54V149.54Z" fill="#0F9FF2"/>
<path id="Vector_8" d="M166.497 238.17C183.18 238.17 196.704 225.175 196.704 209.145C196.704 193.114 183.18 180.119 166.497 180.119C149.815 180.119 136.291 193.114 136.291 209.145C136.291 225.175 149.815 238.17 166.497 238.17Z" fill="#0F9FF2"/>
<path id="Vector_9" d="M162.377 224.251C161.855 224.251 161.34 224.134 160.874 223.91C160.407 223.686 160.002 223.36 159.689 222.959L151.448 212.401C151.182 212.062 150.989 211.676 150.879 211.265C150.769 210.854 150.745 210.426 150.807 210.006C150.869 209.586 151.017 209.182 151.242 208.817C151.467 208.451 151.764 208.132 152.118 207.878C152.471 207.623 152.873 207.438 153.301 207.333C153.728 207.228 154.174 207.205 154.611 207.265C155.048 207.325 155.468 207.468 155.848 207.684C156.228 207.901 156.559 208.187 156.824 208.527L162.215 215.434L176.063 195.476C176.307 195.121 176.621 194.817 176.988 194.58C177.355 194.342 177.767 194.177 178.2 194.093C178.634 194.009 179.08 194.008 179.514 194.09C179.948 194.172 180.36 194.336 180.728 194.572C181.096 194.807 181.412 195.11 181.658 195.464C181.903 195.817 182.074 196.213 182.16 196.63C182.246 197.047 182.246 197.476 182.159 197.892C182.072 198.309 181.901 198.705 181.654 199.058L165.173 222.813C164.874 223.243 164.473 223.597 164.003 223.847C163.533 224.097 163.007 224.235 162.47 224.25C162.439 224.25 162.408 224.251 162.377 224.251Z" fill="white"/>
</g>
</svg>
