<svg width="418" height="400" viewBox="0 0 418 400" fill="none" xmlns="http://www.w3.org/2000/svg">
<rect width="418" height="400" fill="#F3F3F3"/>
<path opacity="0.03" d="M66.4158 400C22.8209 400 -8.81496 357.997 3.74478 316.224C10.8474 292.6 24.9581 269.549 51.7923 255.569C125.225 217.31 118.756 227.801 153.37 163.511C187.983 99.2205 281.797 83.9693 330.954 129.255C400.481 193.307 353.714 244.334 397.712 288.361C398.17 288.82 398.622 289.282 399.069 289.745C438.824 331.05 408.908 400 351.6 400H66.4158Z" fill="#292A2E"/>
<path d="M252.509 173.275V139.007H88.8522V173.274C88.854 191.193 94.7275 208.617 105.573 222.875C116.418 237.134 131.636 247.44 148.895 252.216C151.428 252.927 153.66 254.448 155.249 256.546C156.839 258.645 157.699 261.206 157.699 263.839C157.699 266.472 156.839 269.033 155.249 271.131C153.66 273.229 151.428 274.75 148.895 275.462C131.635 280.237 116.417 290.544 105.572 304.803C94.7264 319.062 88.8533 336.487 88.8522 354.406V388.674H252.509V354.406C252.508 336.487 246.634 319.063 235.789 304.805C224.944 290.546 209.726 280.24 192.467 275.464C189.933 274.753 187.701 273.232 186.112 271.134C184.522 269.035 183.661 266.474 183.661 263.841C183.661 261.208 184.522 258.647 186.112 256.549C187.701 254.45 189.933 252.929 192.467 252.218C209.726 247.443 224.944 237.136 235.789 222.878C246.634 208.619 252.508 191.196 252.509 173.277" fill="#367CFF"/>
<path opacity="0.8" d="M252.509 173.275V139.007H88.8522V173.274C88.854 191.193 94.7275 208.617 105.573 222.875C116.418 237.134 131.636 247.44 148.895 252.216C151.428 252.927 153.66 254.448 155.249 256.546C156.839 258.645 157.699 261.206 157.699 263.839C157.699 266.472 156.839 269.033 155.249 271.131C153.66 273.229 151.428 274.75 148.895 275.462C131.635 280.237 116.417 290.544 105.572 304.803C94.7264 319.062 88.8533 336.487 88.8522 354.406V388.674H252.509V354.406C252.508 336.487 246.634 319.063 235.789 304.805C224.944 290.546 209.726 280.24 192.467 275.464C189.933 274.753 187.701 273.232 186.112 271.134C184.522 269.035 183.661 266.474 183.661 263.841C183.661 261.208 184.522 258.647 186.112 256.549C187.701 254.45 189.933 252.929 192.467 252.218C209.726 247.443 224.944 237.136 235.789 222.878C246.634 208.619 252.508 191.196 252.509 173.277" fill="white"/>
<path d="M253.026 389.191H88.3353V354.406C88.3635 336.381 94.2843 318.859 105.194 304.515C116.104 290.172 131.404 279.794 148.76 274.965C151.184 274.283 153.32 272.828 154.841 270.819C156.362 268.811 157.185 266.36 157.185 263.84C157.185 261.32 156.362 258.869 154.841 256.861C153.32 254.853 151.184 253.397 148.76 252.716C131.404 247.886 116.105 237.508 105.195 223.165C94.2848 208.821 88.3638 191.3 88.3353 173.274V138.49H253.026V173.275C252.998 191.3 247.077 208.821 236.168 223.165C225.258 237.508 209.959 247.886 192.604 252.716C190.18 253.397 188.044 254.853 186.523 256.861C185.002 258.869 184.178 261.32 184.178 263.84C184.178 266.36 185.002 268.811 186.523 270.819C188.044 272.828 190.18 274.283 192.604 274.965C209.959 279.794 225.258 290.173 236.168 304.516C247.077 318.86 252.998 336.381 253.026 354.406V389.191ZM89.3713 388.156H251.992V354.406C251.964 336.607 246.118 319.306 235.346 305.143C224.573 290.979 209.466 280.731 192.33 275.962C189.687 275.221 187.358 273.635 185.7 271.447C184.041 269.258 183.144 266.587 183.144 263.84C183.144 261.094 184.041 258.422 185.7 256.234C187.358 254.045 189.687 252.459 192.33 251.718C209.466 246.949 224.573 236.701 235.346 222.538C246.118 208.375 251.964 191.074 251.992 173.275V139.525H89.3692V173.274C89.3974 191.073 95.2439 208.375 106.017 222.538C116.789 236.701 131.897 246.949 149.034 251.718C151.677 252.46 154.005 254.046 155.663 256.234C157.321 258.423 158.219 261.094 158.219 263.84C158.219 266.587 157.321 269.258 155.663 271.446C154.005 273.635 151.677 275.221 149.034 275.962C131.897 280.731 116.789 290.979 106.016 305.142C95.2436 319.306 89.3972 336.607 89.3692 354.406L89.3713 388.156Z" fill="#292A2E"/>
<path d="M262.017 132.77C262.018 134.4 261.38 135.965 260.241 137.131C259.102 138.296 257.552 138.969 255.923 139.004C255.876 139.007 255.831 139.007 255.783 139.007H85.8559C85.8078 139.007 85.7634 139.007 85.7158 139.004C84.0752 138.968 82.5152 138.285 81.3744 137.104C80.2337 135.924 79.6042 134.341 79.6226 132.699C79.6411 131.057 80.306 129.488 81.4729 128.334C82.6399 127.179 84.2149 126.532 85.8559 126.532H255.781C256.6 126.532 257.411 126.693 258.167 127.007C258.924 127.32 259.611 127.779 260.19 128.358C260.769 128.938 261.229 129.625 261.542 130.382C261.856 131.139 262.017 131.95 262.017 132.77V132.77Z" fill="#292A2E"/>
<path d="M173.572 331.19V257.127C173.509 254.313 174.371 251.557 176.025 249.281C177.68 247.004 180.035 245.335 182.729 244.528C211.686 236.554 238.626 210.561 239.95 180.703C240.02 179.102 238.615 178.047 237.013 178.047H104.347C102.744 178.047 101.34 179.102 101.41 180.703C102.734 210.561 129.674 236.554 158.631 244.528C162.729 245.662 167.79 250.687 167.79 257.313V331.196C167.79 336.524 165.784 341.048 162.02 344.815C158.911 347.926 112.101 388.673 112.101 388.673H229.261C229.261 388.673 182.018 347.461 179.416 344.857C175.651 341.092 173.572 336.518 173.572 331.19Z" fill="#FAFAFA"/>
<path d="M262.061 393.28C262.062 394.911 261.424 396.476 260.285 397.641C259.146 398.807 257.596 399.479 255.967 399.515C255.92 399.518 255.875 399.518 255.828 399.518H85.9004C85.8528 399.518 85.8083 399.518 85.7608 399.515C84.1202 399.478 82.5603 398.795 81.4195 397.615C80.2788 396.434 79.6493 394.852 79.6676 393.21C79.686 391.568 80.3508 389.999 81.5177 388.845C82.6845 387.69 84.2594 387.043 85.9004 387.043H255.828C257.481 387.043 259.066 387.7 260.235 388.87C261.404 390.04 262.061 391.626 262.061 393.28V393.28Z" fill="#292A2E"/>
<path d="M304.242 399.14C344.365 399.14 376.89 366.593 376.89 326.445C376.89 286.296 344.365 253.749 304.242 253.749C264.12 253.749 231.594 286.296 231.594 326.445C231.594 366.593 264.12 399.14 304.242 399.14Z" fill="white"/>
<path d="M325.435 396.364C286.906 408.055 246.054 386.204 234.368 347.65C222.683 309.097 244.521 268.218 283.05 256.527C321.578 244.835 362.432 266.684 374.115 305.238C385.799 343.792 363.963 384.671 325.435 396.364ZM283.264 257.231C245.124 268.805 223.506 309.272 235.074 347.436C246.642 385.601 287.081 407.233 325.221 395.658C363.361 384.082 384.978 343.616 373.411 305.452C361.843 267.288 321.404 245.655 283.264 257.231Z" fill="#292A2E"/>
<path opacity="0.45" d="M304.242 390.447C339.567 390.447 368.203 361.792 368.203 326.445C368.203 291.097 339.567 262.442 304.242 262.442C268.918 262.442 240.282 291.097 240.282 326.445C240.282 361.792 268.918 390.447 304.242 390.447Z" fill="#367CFF"/>
<path d="M304.242 330.293C306.366 330.293 308.088 328.57 308.088 326.444C308.088 324.319 306.366 322.596 304.242 322.596C302.118 322.596 300.397 324.319 300.397 326.444C300.397 328.57 302.118 330.293 304.242 330.293Z" fill="#292A2E"/>
<path d="M351.652 352.106C351.606 352.12 351.557 352.125 351.509 352.12C351.461 352.116 351.414 352.101 351.371 352.078L304.069 326.769C304.01 326.738 303.961 326.691 303.926 326.634C303.892 326.577 303.874 326.511 303.874 326.445L303.858 289.129C303.858 289.031 303.897 288.937 303.966 288.868C304.035 288.799 304.129 288.76 304.226 288.76C304.324 288.76 304.418 288.799 304.487 288.868C304.556 288.937 304.595 289.031 304.595 289.129L304.611 326.224L351.719 351.429C351.783 351.463 351.836 351.516 351.87 351.58C351.904 351.644 351.919 351.717 351.912 351.79C351.905 351.862 351.876 351.931 351.83 351.988C351.784 352.044 351.722 352.085 351.652 352.107V352.106Z" fill="#292A2E"/>
<path d="M111.63 222.093C111.63 222.093 110.12 229.924 102.793 230.361C95.4653 230.797 97.0544 236.639 97.0544 236.639H125.057V222.639L111.63 222.093Z" fill="#367CFF"/>
<path d="M127.606 198.536C127.606 198.536 129.706 206.23 123.324 209.858C116.941 213.486 120.946 218.027 120.946 218.027L146.07 205.658L139.895 193.096L127.606 198.536Z" fill="#367CFF"/>
<path d="M124.948 203.624L106.015 132.141C104.578 124.245 106.739 120.822 110.073 117.496C115.926 111.654 140.179 99.2204 140.179 99.2204L169.275 99.1412C176.99 99.1412 184.577 106.754 184.577 114.474C184.577 122.194 176.734 128.741 169.016 128.741L133.186 132.321L142.899 197.772L124.948 203.624Z" fill="#262626"/>
<path d="M142.899 197.77L139.075 172.003L119.704 183.827L124.948 203.624L142.899 197.77Z" fill="#0C0C0C"/>
<path d="M147.29 113.686C147.29 113.686 135.058 116.414 122.945 128.535C115.6 135.885 116.202 149.185 117.304 174.764L129.335 156.982L142.532 133.166L147.29 113.686Z" fill="#0C0C0C"/>
<path d="M189.639 99.1325L169.88 99.0394L169.872 99.2981H163.889C163.889 99.2981 148.902 113.099 136.835 121.795C128.057 128.12 122.703 134.151 122.24 140.723C121.11 156.745 108.372 225.075 108.372 225.075L127.543 227.98L144.366 146.32C144.366 146.32 170.673 134.185 176.757 129.962C182.487 125.985 186.534 124.448 188.43 120.108C191.705 112.614 189.639 99.1325 189.639 99.1325Z" fill="#262626"/>
<path d="M167.471 104.114L135.415 104.538L153.397 115.286L168.362 107.554C168.723 107.36 169.008 107.051 169.172 106.675C169.337 106.3 169.37 105.88 169.267 105.484C169.165 105.087 168.932 104.736 168.606 104.488C168.28 104.239 167.881 104.108 167.471 104.114V104.114Z" fill="#292A2E"/>
<path opacity="0.2" d="M167.471 104.114L135.415 104.538L153.397 115.286L168.362 107.554C168.723 107.36 169.008 107.051 169.172 106.675C169.337 106.3 169.37 105.88 169.267 105.484C169.165 105.087 168.932 104.736 168.606 104.488C168.28 104.239 167.881 104.108 167.471 104.114V104.114Z" fill="white"/>
<path d="M135.599 46.5679L126.533 75.9655L108.372 99.7585L118.981 111.944L140.587 87.8139C141.582 87.0265 142.361 85.9981 142.849 84.8259L143.186 84.0111L155.664 53.7973L135.599 46.5679Z" fill="#367CFF"/>
<path d="M149.566 15.3618C149.566 15.3618 145.913 12.6025 145.008 6.25101C144.307 1.33296 148.84 4.51906 148.84 4.51906C148.84 4.51906 148.37 0.973435 150.951 1.3252C153.532 1.67697 154.979 5.40211 154.979 5.40211" fill="#0C0C0C"/>
<path d="M164.296 1.74011C164.296 1.74011 177.107 3.1146 172.476 20.4848L171.342 20.5608L169.041 20.716" fill="#0C0C0C"/>
<path d="M151.712 38.6257C151.768 38.6185 152.393 48.9962 164.441 48.0924C172.782 47.467 175.756 38.6123 175.947 38.6123C175.047 38.4209 173.936 38.1306 173.494 38.0308C172.532 37.8073 171.66 37.2958 170.995 36.5644C170.33 35.833 169.904 34.9163 169.772 33.9363C169.528 32.4656 169.942 24.9403 169.815 23.452L157.012 26.3112C157.191 29.4544 158.443 36.7412 154.054 38.0308C153.324 38.2434 152.538 38.4395 151.712 38.6257Z" fill="#E98862"/>
<path opacity="0.52" d="M156.833 35.0521C157.034 34.4053 157.163 33.7385 157.219 33.0635C157.359 31.5235 157.331 29.9727 157.135 28.4388C159.737 28.0868 162.189 27.0115 164.211 25.335C164.448 26.2144 165.756 30.0523 165.394 30.8872C164.708 32.4676 161.493 35.0521 156.833 35.0521Z" fill="#0C0C0C"/>
<path d="M159.475 32.9978C164.526 32.5446 170.571 29.3513 170.658 22.4908L170.737 16.3001C170.824 9.43959 167.294 3.833 160.838 3.74971C154.383 3.66643 149.487 9.168 149.4 16.0301L149.365 18.7718C149.37 19.7131 149.439 20.653 149.572 21.5849C149.903 24.0499 150.416 27.7989 152.088 30.3342C153.666 32.7257 156.248 33.2875 159.475 32.9978Z" fill="#E98862"/>
<path opacity="0.52" d="M157.131 26.7271C156.089 26.7744 155.05 26.5757 154.099 26.1472C154.061 26.1291 154.031 26.097 154.016 26.0577C154.001 26.0183 154.002 25.9747 154.019 25.936C154.035 25.8973 154.066 25.8665 154.105 25.8501C154.144 25.8336 154.187 25.8327 154.226 25.8476C156.277 26.7224 158.138 26.5941 159.61 25.4772C159.639 25.4537 159.67 25.4318 159.702 25.4115C159.74 25.39 159.784 25.3843 159.826 25.3956C159.868 25.4069 159.903 25.4343 159.925 25.4718C159.946 25.5093 159.952 25.5539 159.941 25.5956C159.929 25.6374 159.902 25.673 159.865 25.6945C159.853 25.7018 159.833 25.7168 159.807 25.7369C159.033 26.3262 158.102 26.671 157.131 26.7271Z" fill="#0C0C0C"/>
<path opacity="0.52" d="M157.18 28.2728C156.992 28.2843 156.803 28.2798 156.615 28.2594C156.572 28.2549 156.533 28.2334 156.506 28.1998C156.479 28.1662 156.466 28.1232 156.47 28.0802C156.475 28.0371 156.496 27.9977 156.53 27.9705C156.563 27.9433 156.606 27.9305 156.649 27.935C156.945 27.9894 157.248 27.9801 157.539 27.9078C157.831 27.8354 158.103 27.7017 158.339 27.5155C158.369 27.4849 158.411 27.4677 158.454 27.4677C158.497 27.4676 158.539 27.4847 158.569 27.5153C158.6 27.5458 158.617 27.5872 158.617 27.6304C158.617 27.6736 158.6 27.7151 158.569 27.7457C158.181 28.0769 157.69 28.2631 157.18 28.2728V28.2728Z" fill="#0C0C0C"/>
<path d="M151.531 20.0886C151.971 20.0886 152.327 19.7323 152.327 19.2929C152.327 18.8535 151.971 18.4973 151.531 18.4973C151.092 18.4973 150.736 18.8535 150.736 19.2929C150.736 19.7323 151.092 20.0886 151.531 20.0886Z" fill="#0C0C0C"/>
<path d="M159.3 19.6008C159.74 19.6008 160.096 19.2446 160.096 18.8051C160.096 18.3657 159.74 18.0095 159.3 18.0095C158.861 18.0095 158.505 18.3657 158.505 18.8051C158.505 19.2446 158.861 19.6008 159.3 19.6008Z" fill="#0C0C0C"/>
<path d="M170.231 24.5756C172.193 24.601 173.81 22.5209 173.835 20.5577C173.859 18.5945 172.284 17.4921 170.319 17.4668L169.292 18.772L168.543 24.557L170.231 24.5756Z" fill="#E98862"/>
<path d="M168.279 21.4215C168.279 21.4215 167.616 11.7137 164.675 11.1142C162.716 10.7148 157.965 13.4938 153.564 12.6558C151.638 12.2885 149.81 12.7654 149.625 13.6754C149.551 14.0375 148.352 8.85768 151.367 4.92769C153.767 1.79901 161.623 0.915451 165.196 1.94179C175.092 4.78233 170.725 17.8925 170.725 17.8925L170.284 21.2395L168.279 21.4215Z" fill="#0C0C0C"/>
<g opacity="0.52">
<path opacity="0.52" d="M155.945 24.4359H155.933C155.301 24.4297 154.241 24.3485 154.246 23.8751C154.25 23.483 155.365 19.2607 155.492 18.7807C155.506 18.7432 155.534 18.7123 155.569 18.6939C155.605 18.6756 155.646 18.6712 155.685 18.6815C155.723 18.6918 155.757 18.7161 155.778 18.7498C155.8 18.7834 155.809 18.8239 155.802 18.8635C155.306 20.7335 154.569 23.6118 154.566 23.8782C154.996 24.0666 155.466 24.1473 155.935 24.1136C155.977 24.1124 156.019 24.1281 156.05 24.1574C156.081 24.1867 156.099 24.2272 156.1 24.2698C156.101 24.3125 156.085 24.3539 156.056 24.385C156.027 24.416 155.986 24.4341 155.944 24.4354L155.945 24.4359Z" fill="#0C0C0C"/>
</g>
<path d="M153.789 14.9784C153.124 14.7956 152.423 14.7956 151.758 14.9784C151.432 15.0663 151.121 15.2027 150.835 15.383C150.552 15.5599 150.293 15.7715 150.063 16.013C150.021 16.0561 149.996 16.1139 149.996 16.1744C149.995 16.2349 150.017 16.2935 150.058 16.3379C150.099 16.3822 150.156 16.409 150.216 16.4126C150.277 16.4161 150.336 16.3963 150.382 16.3571L150.396 16.3446C150.608 16.1476 150.845 15.9782 151.099 15.8403C151.349 15.7034 151.619 15.605 151.898 15.5485C152.448 15.4334 153.019 15.4654 153.552 15.6411L153.575 15.6489C153.663 15.68 153.76 15.6749 153.844 15.6345C153.929 15.5942 153.993 15.5221 154.025 15.4339C154.056 15.3458 154.051 15.2489 154.01 15.1645C153.97 15.0801 153.898 15.0153 153.81 14.9841L153.789 14.9784Z" fill="#0C0C0C"/>
<path d="M158.493 15.3779C158.999 15.1323 159.561 15.0252 160.121 15.0675C160.405 15.0858 160.686 15.1474 160.952 15.2501C161.222 15.3527 161.479 15.489 161.715 15.6557L161.731 15.6655C161.781 15.6986 161.843 15.7107 161.903 15.6994C161.962 15.688 162.015 15.654 162.05 15.6046C162.085 15.5551 162.099 15.494 162.09 15.4341C162.081 15.3741 162.049 15.3201 162.001 15.2832C161.741 15.0741 161.456 14.8987 161.153 14.7612C160.845 14.6206 160.519 14.527 160.183 14.4834C159.501 14.3905 158.806 14.4838 158.171 14.7535C158.086 14.7906 158.018 14.8604 157.984 14.9473C157.95 15.0342 157.951 15.1312 157.988 15.217C158.026 15.3027 158.095 15.3702 158.182 15.4045C158.269 15.4389 158.366 15.4373 158.452 15.4001L158.471 15.3908L158.493 15.3779Z" fill="#0C0C0C"/>
<path d="M158.172 4.9723C158.618 2.83344 157.803 0.85343 156.351 0.549829C154.899 0.246228 153.359 1.73401 152.913 3.87287C152.466 6.01173 153.281 7.99172 154.734 8.29532C156.186 8.59892 157.725 7.11116 158.172 4.9723Z" fill="#0C0C0C"/>
<path d="M136.744 61.4322C137.123 65.893 139.814 93.7257 140.178 99.2205H189.618C189.902 94.2647 191.177 72.5936 192.254 62.9019C193.282 53.654 194.724 49.4451 193.54 46.5715C191.451 41.5019 184.803 39.2392 180.3 38.6293C177.551 38.2568 173.415 37.9899 173.415 37.9899C173.415 37.9899 173.065 45.077 164.717 45.4712C153.352 46.0081 154.111 37.9899 154.055 37.9899C152.214 37.9899 142.192 39.3292 139.686 40.9639C138.258 41.8332 137.08 43.0597 136.269 44.5228C135.457 45.9858 135.041 47.635 135.06 49.3081C135.012 52.6359 136.312 56.3724 136.744 61.4322Z" fill="#367CFF"/>
<path d="M139.25 88.2531C139.215 88.253 139.181 88.2397 139.155 88.2159C139.129 88.1921 139.113 88.1594 139.11 88.1243L137.237 66.6876C137.235 66.669 137.237 66.6502 137.242 66.6322C137.248 66.6143 137.257 66.5976 137.269 66.5831C137.28 66.5687 137.295 66.5568 137.312 66.5481C137.328 66.5393 137.346 66.534 137.365 66.5324C137.384 66.5301 137.403 66.5317 137.421 66.5369C137.439 66.5422 137.456 66.5511 137.47 66.5632C137.485 66.5752 137.497 66.59 137.505 66.6068C137.514 66.6235 137.519 66.6419 137.52 66.6607L139.394 88.0974C139.395 88.1159 139.393 88.1345 139.388 88.1521C139.382 88.1698 139.373 88.1862 139.361 88.2004C139.349 88.2146 139.335 88.2262 139.318 88.2348C139.302 88.2433 139.284 88.2485 139.265 88.25L139.25 88.2531Z" fill="#0C0C0C"/>
<path d="M142.835 100.705L149.623 95.1937L148.481 95.517C148.11 95.6139 147.717 95.5663 147.379 95.3839C147.042 95.2014 146.787 94.8977 146.665 94.5341C146.608 94.3442 146.591 94.1449 146.614 93.9482C146.638 93.7515 146.701 93.5616 146.799 93.39C146.898 93.2185 147.031 93.0689 147.19 92.9504C147.348 92.8319 147.529 92.7469 147.722 92.7008L161.983 89.2296L163.21 93.7757C163.59 95.1874 163.541 96.6807 163.068 98.0641C162.595 99.4476 161.721 100.658 160.556 101.541L155.271 105.531C155.001 105.744 154.665 105.856 154.321 105.85C153.977 105.843 153.646 105.718 153.384 105.495C153.151 105.289 152.991 105.014 152.926 104.71C152.86 104.406 152.894 104.089 153.022 103.806C153.005 103.801 152.99 103.793 152.977 103.782C152.963 103.772 152.952 103.758 152.944 103.743C152.936 103.728 152.931 103.711 152.93 103.694C152.929 103.677 152.931 103.66 152.937 103.643L151.963 104.382C151.662 104.619 151.283 104.734 150.901 104.702C150.519 104.67 150.163 104.495 149.906 104.21C149.684 103.949 149.562 103.617 149.561 103.274C149.56 102.931 149.68 102.599 149.9 102.336C149.885 102.333 149.87 102.328 149.856 102.321L149.456 102.624C149.186 102.836 148.85 102.949 148.506 102.942C148.162 102.936 147.831 102.81 147.569 102.588C147.286 102.337 147.112 101.988 147.082 101.611C147.051 101.235 147.168 100.862 147.407 100.57C147.402 100.562 147.397 100.553 147.393 100.544L144.566 102.838C144.426 102.952 144.265 103.037 144.092 103.089C143.919 103.14 143.738 103.157 143.558 103.138C143.379 103.12 143.205 103.066 143.046 102.98C142.887 102.894 142.747 102.777 142.633 102.637C142.52 102.497 142.435 102.336 142.383 102.163C142.332 101.99 142.315 101.808 142.334 101.628C142.352 101.449 142.406 101.275 142.492 101.116C142.578 100.957 142.694 100.817 142.834 100.703L142.835 100.705Z" fill="#E98862"/>
<path opacity="0.2" d="M147.566 100.627C147.581 100.621 147.595 100.613 147.608 100.603L150.327 98.3421C150.354 98.3186 150.371 98.2855 150.374 98.2499C150.377 98.2143 150.366 98.179 150.343 98.1514C150.32 98.1239 150.287 98.1064 150.252 98.1026C150.216 98.0988 150.181 98.109 150.153 98.1311L147.432 100.392C147.408 100.413 147.391 100.442 147.385 100.473C147.38 100.505 147.385 100.538 147.401 100.566C147.417 100.593 147.443 100.615 147.473 100.626C147.503 100.637 147.536 100.637 147.566 100.627V100.627Z" fill="#0A0A0A"/>
<path opacity="0.2" d="M149.963 102.335C149.978 102.329 149.992 102.322 150.004 102.312L152.155 100.553C152.182 100.53 152.198 100.497 152.201 100.462C152.203 100.426 152.192 100.392 152.17 100.364C152.148 100.337 152.116 100.319 152.081 100.315C152.046 100.311 152.011 100.32 151.982 100.341L149.831 102.1C149.806 102.12 149.789 102.149 149.783 102.181C149.778 102.212 149.783 102.245 149.799 102.273C149.815 102.301 149.84 102.322 149.87 102.334C149.9 102.345 149.933 102.345 149.963 102.335V102.335Z" fill="#0A0A0A"/>
<path opacity="0.2" d="M153.111 103.81C153.127 103.805 153.142 103.796 153.154 103.785L154.151 102.93C154.165 102.918 154.176 102.904 154.184 102.888C154.192 102.872 154.197 102.854 154.198 102.836C154.199 102.818 154.197 102.8 154.191 102.783C154.186 102.766 154.177 102.751 154.165 102.737C154.153 102.723 154.139 102.712 154.123 102.704C154.107 102.696 154.09 102.691 154.072 102.69C154.054 102.689 154.036 102.691 154.019 102.696C154.002 102.702 153.986 102.711 153.973 102.723L152.976 103.578C152.952 103.599 152.936 103.627 152.93 103.659C152.925 103.69 152.931 103.723 152.947 103.75C152.963 103.778 152.988 103.799 153.018 103.81C153.048 103.821 153.081 103.821 153.111 103.811V103.81Z" fill="#0A0A0A"/>
<path d="M202.833 87.2066L202.781 86.9749L193.758 47.0387L175.906 51.0768L182.949 82.2519L154.734 89.1879L158.205 105.121L195.805 97.9439C195.89 97.9268 196.011 97.9015 196.1 97.8823C197.242 97.624 198.323 97.1428 199.28 96.4664C200.237 95.79 201.051 94.9316 201.676 93.9402C202.302 92.9489 202.726 91.8439 202.924 90.6885C203.122 89.5332 203.091 88.35 202.833 87.2066V87.2066Z" fill="#367CFF"/>
<path d="M154.595 89.2169C154.588 89.1813 154.595 89.1442 154.614 89.1133C154.633 89.0825 154.664 89.0603 154.699 89.0514L182.787 82.149L178.22 61.9636C178.212 61.9272 178.218 61.889 178.238 61.8574C178.258 61.8258 178.29 61.8034 178.326 61.7952C178.363 61.787 178.401 61.7936 178.432 61.8135C178.464 61.8334 178.486 61.8651 178.494 61.9015L183.092 82.2214C183.101 82.2574 183.094 82.2952 183.075 82.3266C183.056 82.3581 183.025 82.3807 182.989 82.3895L154.898 89.2925C154.898 89.2925 155.087 90.114 155.14 90.3897C155.143 90.4251 155.132 90.4602 155.109 90.4876C155.087 90.515 155.055 90.5327 155.019 90.5369C154.984 90.541 154.949 90.5313 154.92 90.5099C154.892 90.4884 154.873 90.4568 154.868 90.4218C154.803 90.1196 154.595 89.2169 154.595 89.2169Z" fill="#0C0C0C"/>
<path d="M155.696 111.463L144.848 78.0962C144.657 77.5099 144.286 76.9989 143.788 76.6365C143.289 76.2741 142.689 76.0788 142.072 76.0787H97.8779C97.4172 76.0786 96.963 76.1877 96.5525 76.397C96.142 76.6063 95.7869 76.9098 95.5161 77.2828C95.2454 77.6558 95.0668 78.0877 94.9948 78.543C94.9229 78.9984 94.9597 79.4643 95.1023 79.9027L105.95 113.269C106.141 113.856 106.512 114.367 107.011 114.729C107.509 115.092 108.11 115.287 108.726 115.287H152.921C153.382 115.286 153.836 115.177 154.246 114.968C154.656 114.759 155.012 114.455 155.282 114.082C155.553 113.709 155.731 113.277 155.803 112.822C155.875 112.367 155.839 111.901 155.696 111.463V111.463Z" fill="#292A2E"/>
<path opacity="0.2" d="M155.696 111.463L144.848 78.0962C144.657 77.5099 144.286 76.9989 143.788 76.6365C143.289 76.2741 142.689 76.0788 142.072 76.0787H97.8779C97.4172 76.0786 96.963 76.1877 96.5525 76.397C96.142 76.6063 95.7869 76.9098 95.5161 77.2828C95.2454 77.6558 95.0668 78.0877 94.9948 78.543C94.9229 78.9984 94.9597 79.4643 95.1023 79.9027L105.95 113.269C106.141 113.856 106.512 114.367 107.011 114.729C107.509 115.092 108.11 115.287 108.726 115.287H152.921C153.382 115.286 153.836 115.177 154.246 114.968C154.656 114.759 155.012 114.455 155.282 114.082C155.553 113.709 155.731 113.277 155.803 112.822C155.875 112.367 155.839 111.901 155.696 111.463V111.463Z" fill="white"/>
<path d="M124.126 100.32C126.686 100.32 128.762 98.2438 128.762 95.6822C128.762 93.1207 126.686 91.0441 124.126 91.0441C121.567 91.0441 119.491 93.1207 119.491 95.6822C119.491 98.2438 121.567 100.32 124.126 100.32Z" fill="white"/>
</svg>
