<svg width="551" height="400" viewBox="0 0 551 400" fill="none" xmlns="http://www.w3.org/2000/svg">
<g id="home-avatar" clip-path="url(#clip0_2577_824)">
<path id="Vector" d="M320.956 70.5154C331.283 70.5154 339.655 62.1595 339.655 51.8519C339.655 41.5444 331.283 33.1885 320.956 33.1885C310.63 33.1885 302.258 41.5444 302.258 51.8519C302.258 62.1595 310.63 70.5154 320.956 70.5154Z" fill="#F2F2F2"/>
<path id="Vector_2" d="M426.073 38.6679C425.463 38.2625 424.847 37.878 424.238 37.4866C406.626 26.244 387.75 17.1106 367.998 10.2751L363.418 73.3376H334.384V1.06945C332.556 0.691995 330.715 0.335513 328.873 0V73.3376H294.37C275.375 73.3376 257.159 65.8061 243.728 52.4001C230.297 38.994 222.751 20.8114 222.751 1.85239V1.85233C220.903 2.25075 219.068 2.67713 217.233 3.13147V73.3376H189.131L184.768 13.2039C164.47 20.974 145.2 31.1921 127.386 43.6307C127.078 43.8404 126.77 44.0571 126.469 44.2668C124.921 45.3502 123.395 46.4546 121.875 47.573V288.157H204.698L203.234 267.921L195.181 156.817H357.361L349.307 267.921L347.844 288.157H429.749V41.1004C428.531 40.2756 427.305 39.4648 426.073 38.6679ZM217.233 138.469H193.851L189.53 78.8456H217.233V138.469ZM328.873 138.469H289.601V137.288C289.601 136.72 289.489 136.158 289.271 135.633C289.053 135.108 288.733 134.632 288.331 134.231C287.928 133.83 287.45 133.511 286.924 133.295C286.398 133.078 285.835 132.967 285.266 132.968H268.193C267.625 132.968 267.062 133.079 266.537 133.296C266.011 133.513 265.534 133.832 265.132 134.233C264.73 134.634 264.412 135.11 264.194 135.634C263.977 136.159 263.865 136.72 263.865 137.288V138.469H222.751V78.8456H328.873V138.469ZM334.384 138.469V78.8456H363.019L358.698 138.469H334.384Z" fill="#3F3D56"/>
<path id="Vector_3" d="M0 303.563C6.08357 310.758 12.6636 317.52 19.6921 323.799L531.308 324.498C538.336 318.219 544.916 311.457 551 304.262L0 303.563Z" fill="#3F3D56"/>
<path id="Vector_4" d="M346.943 238.767V298.673C346.944 299.437 347.248 300.169 347.789 300.709C348.33 301.248 349.063 301.552 349.828 301.553H438.768C439.532 301.552 440.266 301.248 440.807 300.709C441.347 300.169 441.651 299.437 441.652 298.673V238.767C441.65 238.005 441.346 237.274 440.805 236.735C440.264 236.196 439.532 235.892 438.768 235.891H349.828C349.064 235.892 348.331 236.196 347.79 236.735C347.25 237.274 346.945 238.005 346.943 238.767V238.767Z" fill="#3F3D56"/>
<path id="Vector_5" d="M349.03 239.513V297.934C349.03 298.342 349.193 298.733 349.482 299.022C349.771 299.31 350.163 299.472 350.571 299.473H438.027C438.436 299.472 438.827 299.31 439.116 299.022C439.405 298.733 439.568 298.342 439.569 297.934V239.513C439.569 239.104 439.406 238.713 439.117 238.424C438.828 238.135 438.436 237.972 438.027 237.971H350.571C350.162 237.972 349.77 238.135 349.481 238.424C349.192 238.713 349.03 239.104 349.03 239.513V239.513Z" fill="#0F9FF2"/>
<path id="Vector_6" d="M345.083 310.357C345.246 310.56 345.453 310.725 345.689 310.837C345.924 310.95 346.183 311.008 346.444 311.006H441.677C441.938 311.006 442.195 310.948 442.43 310.836C442.665 310.724 442.872 310.561 443.036 310.359C443.2 310.157 443.317 309.921 443.378 309.669C443.44 309.416 443.444 309.153 443.39 308.899L441.912 301.89C441.851 301.604 441.719 301.338 441.528 301.116C441.338 300.894 441.095 300.723 440.821 300.619C440.623 300.541 440.412 300.502 440.199 300.502H347.916C347.704 300.502 347.493 300.541 347.295 300.619C347.021 300.723 346.778 300.894 346.587 301.116C346.397 301.338 346.265 301.604 346.203 301.89L344.725 308.899C344.673 309.153 344.677 309.416 344.739 309.668C344.801 309.92 344.919 310.155 345.083 310.357V310.357Z" fill="#2F2E41"/>
<path id="Vector_7" d="M436.932 303.521H439.181C439.37 303.521 439.523 303.368 439.523 303.18V302.105C439.523 301.917 439.37 301.764 439.181 301.764H436.932C436.743 301.764 436.59 301.917 436.59 302.105V303.18C436.59 303.368 436.743 303.521 436.932 303.521Z" fill="#3F3D56"/>
<path id="Vector_8" d="M431.065 303.521H433.315C433.504 303.521 433.657 303.368 433.657 303.18V302.105C433.657 301.917 433.504 301.764 433.315 301.764H431.065C430.877 301.764 430.724 301.917 430.724 302.105V303.18C430.724 303.368 430.877 303.521 431.065 303.521Z" fill="#3F3D56"/>
<path id="Vector_9" d="M425.199 303.521H427.448C427.637 303.521 427.79 303.368 427.79 303.18V302.105C427.79 301.917 427.637 301.764 427.448 301.764H425.199C425.01 301.764 424.857 301.917 424.857 302.105V303.18C424.857 303.368 425.01 303.521 425.199 303.521Z" fill="#3F3D56"/>
<path id="Vector_10" d="M419.332 303.521H421.582C421.771 303.521 421.924 303.368 421.924 303.18V302.105C421.924 301.917 421.771 301.764 421.582 301.764H419.332C419.144 301.764 418.991 301.917 418.991 302.105V303.18C418.991 303.368 419.144 303.521 419.332 303.521Z" fill="#3F3D56"/>
<path id="Vector_11" d="M413.466 303.521H415.716C415.905 303.521 416.058 303.368 416.058 303.18V302.105C416.058 301.917 415.905 301.764 415.716 301.764H413.466C413.278 301.764 413.125 301.917 413.125 302.105V303.18C413.125 303.368 413.278 303.521 413.466 303.521Z" fill="#3F3D56"/>
<path id="Vector_12" d="M407.6 303.521H409.85C410.038 303.521 410.191 303.368 410.191 303.18V302.105C410.191 301.917 410.038 301.764 409.85 301.764H407.6C407.411 301.764 407.258 301.917 407.258 302.105V303.18C407.258 303.368 407.411 303.521 407.6 303.521Z" fill="#3F3D56"/>
<path id="Vector_13" d="M401.734 303.521H403.983C404.172 303.521 404.325 303.368 404.325 303.18V302.105C404.325 301.917 404.172 301.764 403.983 301.764H401.734C401.545 301.764 401.392 301.917 401.392 302.105V303.18C401.392 303.368 401.545 303.521 401.734 303.521Z" fill="#3F3D56"/>
<path id="Vector_14" d="M395.868 303.521H398.117C398.306 303.521 398.459 303.368 398.459 303.18V302.105C398.459 301.917 398.306 301.764 398.117 301.764H395.868C395.679 301.764 395.526 301.917 395.526 302.105V303.18C395.526 303.368 395.679 303.521 395.868 303.521Z" fill="#3F3D56"/>
<path id="Vector_15" d="M390.001 303.521H392.251C392.44 303.521 392.593 303.368 392.593 303.18V302.105C392.593 301.917 392.44 301.764 392.251 301.764H390.001C389.813 301.764 389.66 301.917 389.66 302.105V303.18C389.66 303.368 389.813 303.521 390.001 303.521Z" fill="#3F3D56"/>
<path id="Vector_16" d="M384.135 303.521H386.384C386.573 303.521 386.726 303.368 386.726 303.18V302.105C386.726 301.917 386.573 301.764 386.384 301.764H384.135C383.946 301.764 383.793 301.917 383.793 302.105V303.18C383.793 303.368 383.946 303.521 384.135 303.521Z" fill="#3F3D56"/>
<path id="Vector_17" d="M378.269 303.521H380.518C380.707 303.521 380.86 303.368 380.86 303.18V302.105C380.86 301.917 380.707 301.764 380.518 301.764H378.269C378.08 301.764 377.927 301.917 377.927 302.105V303.18C377.927 303.368 378.08 303.521 378.269 303.521Z" fill="#3F3D56"/>
<path id="Vector_18" d="M372.402 303.521H374.652C374.841 303.521 374.994 303.368 374.994 303.18V302.105C374.994 301.917 374.841 301.764 374.652 301.764H372.402C372.214 301.764 372.06 301.917 372.06 302.105V303.18C372.06 303.368 372.214 303.521 372.402 303.521Z" fill="#3F3D56"/>
<path id="Vector_19" d="M366.536 303.521H368.786C368.974 303.521 369.127 303.368 369.127 303.18V302.105C369.127 301.917 368.974 301.764 368.786 301.764H366.536C366.347 301.764 366.194 301.917 366.194 302.105V303.18C366.194 303.368 366.347 303.521 366.536 303.521Z" fill="#3F3D56"/>
<path id="Vector_20" d="M360.67 303.521H362.919C363.108 303.521 363.261 303.368 363.261 303.18V302.105C363.261 301.917 363.108 301.764 362.919 301.764H360.67C360.481 301.764 360.328 301.917 360.328 302.105V303.18C360.328 303.368 360.481 303.521 360.67 303.521Z" fill="#3F3D56"/>
<path id="Vector_21" d="M354.804 303.521H357.053C357.242 303.521 357.395 303.368 357.395 303.18V302.105C357.395 301.917 357.242 301.764 357.053 301.764H354.804C354.615 301.764 354.462 301.917 354.462 302.105V303.18C354.462 303.368 354.615 303.521 354.804 303.521Z" fill="#3F3D56"/>
<path id="Vector_22" d="M348.937 303.521H351.186C351.375 303.521 351.528 303.368 351.528 303.18V302.105C351.528 301.917 351.375 301.764 351.186 301.764H348.937C348.748 301.764 348.595 301.917 348.595 302.105V303.18C348.595 303.368 348.748 303.521 348.937 303.521Z" fill="#3F3D56"/>
<path id="Vector_23" d="M437.001 306.448H439.25C439.439 306.448 439.592 306.296 439.592 306.107V305.033C439.592 304.845 439.439 304.692 439.25 304.692H437.001C436.812 304.692 436.659 304.845 436.659 305.033V306.107C436.659 306.296 436.812 306.448 437.001 306.448Z" fill="#3F3D56"/>
<path id="Vector_24" d="M431.135 306.448H433.384C433.573 306.448 433.726 306.296 433.726 306.107V305.033C433.726 304.845 433.573 304.692 433.384 304.692H431.135C430.946 304.692 430.793 304.845 430.793 305.033V306.107C430.793 306.296 430.946 306.448 431.135 306.448Z" fill="#3F3D56"/>
<path id="Vector_25" d="M425.269 306.448H427.518C427.707 306.448 427.86 306.296 427.86 306.107V305.033C427.86 304.845 427.707 304.692 427.518 304.692H425.269C425.08 304.692 424.927 304.845 424.927 305.033V306.107C424.927 306.296 425.08 306.448 425.269 306.448Z" fill="#3F3D56"/>
<path id="Vector_26" d="M419.402 306.448H421.651C421.84 306.448 421.993 306.296 421.993 306.107V305.033C421.993 304.845 421.84 304.692 421.651 304.692H419.402C419.213 304.692 419.06 304.845 419.06 305.033V306.107C419.06 306.296 419.213 306.448 419.402 306.448Z" fill="#3F3D56"/>
<path id="Vector_27" d="M413.536 306.448H415.785C415.974 306.448 416.127 306.296 416.127 306.107V305.033C416.127 304.845 415.974 304.692 415.785 304.692H413.536C413.347 304.692 413.194 304.845 413.194 305.033V306.107C413.194 306.296 413.347 306.448 413.536 306.448Z" fill="#3F3D56"/>
<path id="Vector_28" d="M407.669 306.448H409.919C410.108 306.448 410.261 306.296 410.261 306.107V305.033C410.261 304.845 410.108 304.692 409.919 304.692H407.669C407.481 304.692 407.328 304.845 407.328 305.033V306.107C407.328 306.296 407.481 306.448 407.669 306.448Z" fill="#3F3D56"/>
<path id="Vector_29" d="M401.803 306.448H404.053C404.241 306.448 404.395 306.296 404.395 306.107V305.033C404.395 304.845 404.241 304.692 404.053 304.692H401.803C401.614 304.692 401.461 304.845 401.461 305.033V306.107C401.461 306.296 401.614 306.448 401.803 306.448Z" fill="#3F3D56"/>
<path id="Vector_30" d="M395.937 306.448H398.186C398.375 306.448 398.528 306.296 398.528 306.107V305.033C398.528 304.845 398.375 304.692 398.186 304.692H395.937C395.748 304.692 395.595 304.845 395.595 305.033V306.107C395.595 306.296 395.748 306.448 395.937 306.448Z" fill="#3F3D56"/>
<path id="Vector_31" d="M390.07 306.448H392.32C392.509 306.448 392.662 306.296 392.662 306.107V305.033C392.662 304.845 392.509 304.692 392.32 304.692H390.07C389.882 304.692 389.729 304.845 389.729 305.033V306.107C389.729 306.296 389.882 306.448 390.07 306.448Z" fill="#3F3D56"/>
<path id="Vector_32" d="M384.204 306.448H386.454C386.642 306.448 386.795 306.296 386.795 306.107V305.033C386.795 304.845 386.642 304.692 386.454 304.692H384.204C384.015 304.692 383.862 304.845 383.862 305.033V306.107C383.862 306.296 384.015 306.448 384.204 306.448Z" fill="#3F3D56"/>
<path id="Vector_33" d="M378.338 306.448H380.587C380.776 306.448 380.929 306.296 380.929 306.107V305.033C380.929 304.845 380.776 304.692 380.587 304.692H378.338C378.149 304.692 377.996 304.845 377.996 305.033V306.107C377.996 306.296 378.149 306.448 378.338 306.448Z" fill="#3F3D56"/>
<path id="Vector_34" d="M372.472 306.448H374.721C374.91 306.448 375.063 306.296 375.063 306.107V305.033C375.063 304.845 374.91 304.692 374.721 304.692H372.472C372.283 304.692 372.13 304.845 372.13 305.033V306.107C372.13 306.296 372.283 306.448 372.472 306.448Z" fill="#3F3D56"/>
<path id="Vector_35" d="M366.606 306.448H368.855C369.044 306.448 369.197 306.296 369.197 306.107V305.033C369.197 304.845 369.044 304.692 368.855 304.692H366.606C366.417 304.692 366.264 304.845 366.264 305.033V306.107C366.264 306.296 366.417 306.448 366.606 306.448Z" fill="#3F3D56"/>
<path id="Vector_36" d="M360.739 306.448H362.989C363.177 306.448 363.331 306.296 363.331 306.107V305.033C363.331 304.845 363.177 304.692 362.989 304.692H360.739C360.55 304.692 360.397 304.845 360.397 305.033V306.107C360.397 306.296 360.55 306.448 360.739 306.448Z" fill="#3F3D56"/>
<path id="Vector_37" d="M354.873 306.448H357.122C357.311 306.448 357.464 306.296 357.464 306.107V305.033C357.464 304.845 357.311 304.692 357.122 304.692H354.873C354.684 304.692 354.531 304.845 354.531 305.033V306.107C354.531 306.296 354.684 306.448 354.873 306.448Z" fill="#3F3D56"/>
<path id="Vector_38" d="M349.006 306.448H351.256C351.445 306.448 351.598 306.296 351.598 306.107V305.033C351.598 304.845 351.445 304.692 351.256 304.692H349.006C348.818 304.692 348.664 304.845 348.664 305.033V306.107C348.664 306.296 348.818 306.448 349.006 306.448Z" fill="#3F3D56"/>
<path id="Vector_39" d="M388.311 309.962H411.092C411.281 309.962 411.434 309.809 411.434 309.621V308.546C411.434 308.358 411.281 308.205 411.092 308.205H388.311C388.122 308.205 387.969 308.358 387.969 308.546V309.621C387.969 309.809 388.122 309.962 388.311 309.962Z" fill="#3F3D56"/>
<path id="Vector_40" d="M364.174 250.752H362.183C361.579 250.752 361.09 251.241 361.09 251.843C361.09 252.446 361.579 252.934 362.183 252.934H364.174C364.778 252.934 365.268 252.446 365.268 251.843C365.268 251.241 364.778 250.752 364.174 250.752Z" fill="white"/>
<path id="Vector_41" d="M386.95 250.752H384.958C384.355 250.752 383.865 251.241 383.865 251.843C383.865 252.446 384.355 252.934 384.958 252.934H386.95C387.554 252.934 388.043 252.446 388.043 251.843C388.043 251.241 387.554 250.752 386.95 250.752Z" fill="white"/>
<path id="Vector_42" d="M393.403 250.752H391.412C390.808 250.752 390.318 251.241 390.318 251.843C390.318 252.446 390.808 252.934 391.412 252.934H393.403C394.007 252.934 394.496 252.446 394.496 251.843C394.496 251.241 394.007 250.752 393.403 250.752Z" fill="white"/>
<path id="Vector_43" d="M380.755 250.57H368.378C367.774 250.57 367.285 251.059 367.285 251.661C367.285 252.264 367.774 252.753 368.378 252.753H380.755C381.358 252.753 381.848 252.264 381.848 251.661C381.848 251.059 381.358 250.57 380.755 250.57Z" fill="white"/>
<path id="Vector_44" d="M411.122 250.57H398.746C398.142 250.57 397.652 251.059 397.652 251.661C397.652 252.264 398.142 252.753 398.746 252.753H411.122C411.726 252.753 412.216 252.264 412.216 251.661C412.216 251.059 411.726 250.57 411.122 250.57Z" fill="white"/>
<path id="Vector_45" d="M370.248 255.678H368.256C367.653 255.678 367.163 256.166 367.163 256.769C367.163 257.371 367.653 257.86 368.256 257.86H370.248C370.851 257.86 371.341 257.371 371.341 256.769C371.341 256.166 370.851 255.678 370.248 255.678Z" fill="white"/>
<path id="Vector_46" d="M393.024 255.678H391.032C390.428 255.678 389.939 256.166 389.939 256.769C389.939 257.371 390.428 257.86 391.032 257.86H393.024C393.627 257.86 394.117 257.371 394.117 256.769C394.117 256.166 393.627 255.678 393.024 255.678Z" fill="white"/>
<path id="Vector_47" d="M399.476 255.678H397.485C396.881 255.678 396.392 256.166 396.392 256.769C396.392 257.371 396.881 257.86 397.485 257.86H399.476C400.08 257.86 400.569 257.371 400.569 256.769C400.569 256.166 400.08 255.678 399.476 255.678Z" fill="white"/>
<path id="Vector_48" d="M386.828 255.496H374.452C373.848 255.496 373.358 255.984 373.358 256.587C373.358 257.189 373.848 257.678 374.452 257.678H386.828C387.432 257.678 387.922 257.189 387.922 256.587C387.922 255.984 387.432 255.496 386.828 255.496Z" fill="white"/>
<path id="Vector_49" d="M417.196 255.496H404.819C404.215 255.496 403.726 255.984 403.726 256.587C403.726 257.189 404.215 257.678 404.819 257.678H417.196C417.799 257.678 418.289 257.189 418.289 256.587C418.289 255.984 417.799 255.496 417.196 255.496Z" fill="white"/>
<path id="Vector_50" d="M376.321 260.603H374.33C373.726 260.603 373.237 261.092 373.237 261.694C373.237 262.297 373.726 262.785 374.33 262.785H376.321C376.925 262.785 377.415 262.297 377.415 261.694C377.415 261.092 376.925 260.603 376.321 260.603Z" fill="white"/>
<path id="Vector_51" d="M399.097 260.603H397.105C396.502 260.603 396.012 261.092 396.012 261.694C396.012 262.297 396.502 262.785 397.105 262.785H399.097C399.701 262.785 400.19 262.297 400.19 261.694C400.19 261.092 399.701 260.603 399.097 260.603Z" fill="white"/>
<path id="Vector_52" d="M405.55 260.603H403.559C402.955 260.603 402.465 261.092 402.465 261.694C402.465 262.297 402.955 262.785 403.559 262.785H405.55C406.154 262.785 406.643 262.297 406.643 261.694C406.643 261.092 406.154 260.603 405.55 260.603Z" fill="white"/>
<path id="Vector_53" d="M392.902 260.421H380.525C379.921 260.421 379.432 260.91 379.432 261.512C379.432 262.115 379.921 262.603 380.525 262.603H392.902C393.505 262.603 393.995 262.115 393.995 261.512C393.995 260.91 393.505 260.421 392.902 260.421Z" fill="white"/>
<path id="Vector_54" d="M423.269 260.421H410.892C410.288 260.421 409.799 260.91 409.799 261.512C409.799 262.115 410.288 262.603 410.892 262.603H423.269C423.873 262.603 424.362 262.115 424.362 261.512C424.362 260.91 423.873 260.421 423.269 260.421Z" fill="white"/>
<path id="Vector_55" d="M382.395 265.529H380.403C379.8 265.529 379.31 266.017 379.31 266.62C379.31 267.222 379.8 267.711 380.403 267.711H382.395C382.998 267.711 383.488 267.222 383.488 266.62C383.488 266.017 382.998 265.529 382.395 265.529Z" fill="white"/>
<path id="Vector_56" d="M405.171 265.529H403.179C402.575 265.529 402.086 266.017 402.086 266.62C402.086 267.222 402.575 267.711 403.179 267.711H405.171C405.774 267.711 406.264 267.222 406.264 266.62C406.264 266.017 405.774 265.529 405.171 265.529Z" fill="white"/>
<path id="Vector_57" d="M411.623 265.529H409.632C409.028 265.529 408.539 266.017 408.539 266.62C408.539 267.222 409.028 267.711 409.632 267.711H411.623C412.227 267.711 412.717 267.222 412.717 266.62C412.717 266.017 412.227 265.529 411.623 265.529Z" fill="white"/>
<path id="Vector_58" d="M398.975 265.347H386.599C385.995 265.347 385.505 265.835 385.505 266.438C385.505 267.04 385.995 267.529 386.599 267.529H398.975C399.579 267.529 400.069 267.04 400.069 266.438C400.069 265.835 399.579 265.347 398.975 265.347Z" fill="white"/>
<path id="Vector_59" d="M386.95 285.115H384.958C384.355 285.115 383.865 285.603 383.865 286.206C383.865 286.808 384.355 287.297 384.958 287.297H386.95C387.554 287.297 388.043 286.808 388.043 286.206C388.043 285.603 387.554 285.115 386.95 285.115Z" fill="white"/>
<path id="Vector_60" d="M393.403 285.115H391.412C390.808 285.115 390.318 285.603 390.318 286.206C390.318 286.808 390.808 287.297 391.412 287.297H393.403C394.007 287.297 394.496 286.808 394.496 286.206C394.496 285.603 394.007 285.115 393.403 285.115Z" fill="white"/>
<path id="Vector_61" d="M411.122 285.297H398.746C398.142 285.297 397.652 285.785 397.652 286.388C397.652 286.99 398.142 287.479 398.746 287.479H411.122C411.726 287.479 412.216 286.99 412.216 286.388C412.216 285.785 411.726 285.297 411.122 285.297Z" fill="white"/>
<path id="Vector_62" d="M364.174 285.115H362.183C361.579 285.115 361.09 285.603 361.09 286.206C361.09 286.808 361.579 287.297 362.183 287.297H364.174C364.778 287.297 365.268 286.808 365.268 286.206C365.268 285.603 364.778 285.115 364.174 285.115Z" fill="white"/>
<path id="Vector_63" d="M380.755 285.297H368.378C367.774 285.297 367.285 285.785 367.285 286.388C367.285 286.99 367.774 287.479 368.378 287.479H380.755C381.358 287.479 381.848 286.99 381.848 286.388C381.848 285.785 381.358 285.297 380.755 285.297Z" fill="white"/>
<path id="Vector_64" d="M370.248 280.189H368.256C367.653 280.189 367.163 280.677 367.163 281.28C367.163 281.883 367.653 282.371 368.256 282.371H370.248C370.851 282.371 371.341 281.883 371.341 281.28C371.341 280.677 370.851 280.189 370.248 280.189Z" fill="white"/>
<path id="Vector_65" d="M393.024 280.189H391.032C390.428 280.189 389.939 280.677 389.939 281.28C389.939 281.883 390.428 282.371 391.032 282.371H393.024C393.627 282.371 394.117 281.883 394.117 281.28C394.117 280.677 393.627 280.189 393.024 280.189Z" fill="white"/>
<path id="Vector_66" d="M399.476 280.189H397.485C396.881 280.189 396.392 280.677 396.392 281.28C396.392 281.883 396.881 282.371 397.485 282.371H399.476C400.08 282.371 400.569 281.883 400.569 281.28C400.569 280.677 400.08 280.189 399.476 280.189Z" fill="white"/>
<path id="Vector_67" d="M386.828 280.371H374.452C373.848 280.371 373.358 280.859 373.358 281.462C373.358 282.065 373.848 282.553 374.452 282.553H386.828C387.432 282.553 387.922 282.065 387.922 281.462C387.922 280.859 387.432 280.371 386.828 280.371Z" fill="white"/>
<path id="Vector_68" d="M376.321 275.264H374.33C373.726 275.264 373.237 275.752 373.237 276.355C373.237 276.957 373.726 277.446 374.33 277.446H376.321C376.925 277.446 377.415 276.957 377.415 276.355C377.415 275.752 376.925 275.264 376.321 275.264Z" fill="white"/>
<path id="Vector_69" d="M399.097 275.264H397.105C396.502 275.264 396.012 275.752 396.012 276.355C396.012 276.957 396.502 277.446 397.105 277.446H399.097C399.701 277.446 400.19 276.957 400.19 276.355C400.19 275.752 399.701 275.264 399.097 275.264Z" fill="white"/>
<path id="Vector_70" d="M405.55 275.264H403.559C402.955 275.264 402.465 275.752 402.465 276.355C402.465 276.957 402.955 277.446 403.559 277.446H405.55C406.154 277.446 406.643 276.957 406.643 276.355C406.643 275.752 406.154 275.264 405.55 275.264Z" fill="white"/>
<path id="Vector_71" d="M392.902 275.445H380.525C379.921 275.445 379.432 275.934 379.432 276.537C379.432 277.139 379.921 277.628 380.525 277.628H392.902C393.505 277.628 393.995 277.139 393.995 276.537C393.995 275.934 393.505 275.445 392.902 275.445Z" fill="white"/>
<path id="Vector_72" d="M382.395 270.338H380.403C379.8 270.338 379.31 270.827 379.31 271.429C379.31 272.032 379.8 272.52 380.403 272.52H382.395C382.998 272.52 383.488 272.032 383.488 271.429C383.488 270.827 382.998 270.338 382.395 270.338Z" fill="white"/>
<path id="Vector_73" d="M405.171 270.338H403.179C402.575 270.338 402.086 270.827 402.086 271.429C402.086 272.032 402.575 272.52 403.179 272.52H405.171C405.774 272.52 406.264 272.032 406.264 271.429C406.264 270.827 405.774 270.338 405.171 270.338Z" fill="white"/>
<path id="Vector_74" d="M411.623 270.338H409.632C409.028 270.338 408.539 270.827 408.539 271.429C408.539 272.032 409.028 272.52 409.632 272.52H411.623C412.227 272.52 412.717 272.032 412.717 271.429C412.717 270.827 412.227 270.338 411.623 270.338Z" fill="white"/>
<path id="Vector_75" d="M398.975 270.52H386.599C385.995 270.52 385.505 271.008 385.505 271.611C385.505 272.214 385.995 272.702 386.599 272.702H398.975C399.579 272.702 400.069 272.214 400.069 271.611C400.069 271.008 399.579 270.52 398.975 270.52Z" fill="white"/>
<path id="Vector_76" d="M353.587 342.84L344.239 328.09L373.582 304.742L385.694 291.348C387.267 289.608 389.271 288.311 391.504 287.586C393.737 286.861 396.122 286.734 398.42 287.217C400.718 287.7 402.849 288.776 404.6 290.339C406.35 291.902 407.659 293.895 408.396 296.121C409.488 299.419 409.253 303.012 407.741 306.141C406.229 309.269 403.559 311.69 400.293 312.89L381.141 319.933L353.587 342.84Z" fill="#FFB6B6"/>
<path id="Vector_77" d="M134.238 235.894V307.582H184.554V235.894C184.555 235.379 184.39 234.876 184.084 234.461C183.777 234.046 183.346 233.74 182.852 233.588C182.62 233.511 182.376 233.473 182.131 233.476H136.668C136.35 233.475 136.034 233.537 135.739 233.659C135.445 233.78 135.177 233.958 134.951 234.182C134.725 234.407 134.546 234.674 134.424 234.968C134.302 235.261 134.239 235.576 134.238 235.894V235.894ZM153.874 260.527C153.887 259.113 154.459 257.762 155.465 256.768C156.471 255.773 157.83 255.215 159.246 255.215C160.662 255.215 162.02 255.773 163.026 256.768C164.032 257.762 164.604 259.113 164.617 260.527V268.845C164.61 270.262 164.04 271.618 163.034 272.618C162.027 273.617 160.665 274.178 159.246 274.178C157.826 274.178 156.464 273.617 155.457 272.618C154.451 271.618 153.882 270.262 153.874 268.845V260.527Z" fill="#2F2E41"/>
<path id="Vector_78" d="M134.084 305.29V312.203C134.085 312.561 134.228 312.904 134.481 313.158C134.734 313.412 135.077 313.556 135.436 313.559H183.356C183.715 313.557 184.059 313.413 184.312 313.159C184.566 312.905 184.708 312.561 184.708 312.203V305.29H134.084Z" fill="#3F3D56"/>
<path id="Vector_79" d="M55.0845 127.887V258.779C55.0858 260.447 55.7502 262.046 56.9319 263.226C58.1136 264.405 59.7159 265.069 61.3871 265.07H255.717C257.388 265.069 258.99 264.405 260.172 263.226C261.354 262.046 262.018 260.447 262.019 258.779V127.887C262.015 126.22 261.35 124.623 260.169 123.446C258.987 122.268 257.386 121.605 255.717 121.603H61.3871C59.7174 121.605 58.1166 122.268 56.9353 123.446C55.754 124.623 55.0885 126.22 55.0845 127.887Z" fill="#3F3D56"/>
<path id="Vector_80" d="M59.6436 129.516V257.164C59.6451 258.056 60.0005 258.91 60.6318 259.54C61.2632 260.17 62.1191 260.525 63.0119 260.526H254.099C254.992 260.525 255.848 260.17 256.479 259.54C257.111 258.91 257.466 258.056 257.468 257.164V129.516C257.468 128.623 257.113 127.767 256.481 127.136C255.85 126.504 254.993 126.148 254.099 126.146H63.0119C62.118 126.148 61.2613 126.504 60.6298 127.136C59.9983 127.767 59.6436 128.623 59.6436 129.516Z" fill="white"/>
<path id="Vector_81" d="M95.1061 313.09C95.3006 313.334 95.5478 313.53 95.8292 313.664C96.1106 313.799 96.4188 313.868 96.7308 313.866H210.415C210.726 313.866 211.033 313.796 211.314 313.663C211.594 313.529 211.842 313.335 212.037 313.094C212.233 312.853 212.373 312.571 212.446 312.269C212.519 311.968 212.524 311.654 212.46 311.35L210.695 302.983C210.622 302.642 210.465 302.324 210.237 302.059C210.01 301.794 209.72 301.591 209.393 301.466C209.156 301.374 208.905 301.326 208.651 301.326H98.4885C98.2345 301.326 97.9827 301.374 97.7462 301.466C97.4195 301.591 97.1292 301.794 96.9017 302.059C96.6742 302.324 96.5168 302.642 96.4436 302.983L94.6789 311.35C94.6161 311.653 94.6219 311.967 94.6958 312.268C94.7697 312.569 94.9098 312.85 95.1061 313.09Z" fill="#2F2E41"/>
<path id="Vector_82" d="M247.898 143.731H69.0982C68.9124 143.727 68.7356 143.65 68.6056 143.517C68.4756 143.385 68.4028 143.207 68.4028 143.021C68.4028 142.835 68.4756 142.657 68.6056 142.525C68.7356 142.392 68.9124 142.315 69.0982 142.311H247.898C248.084 142.315 248.261 142.392 248.391 142.525C248.521 142.657 248.593 142.835 248.593 143.021C248.593 143.207 248.521 143.385 248.391 143.517C248.261 143.65 248.084 143.727 247.898 143.731V143.731Z" fill="#3F3D56"/>
<path id="Vector_83" d="M81.2691 138.688C83.5704 138.688 85.4361 136.784 85.4361 134.436C85.4361 132.087 83.5704 130.184 81.2691 130.184C78.9677 130.184 77.1021 132.087 77.1021 134.436C77.1021 136.784 78.9677 138.688 81.2691 138.688Z" fill="#3F3D56"/>
<path id="Vector_84" d="M95.6646 138.688C97.9659 138.688 99.8316 136.784 99.8316 134.436C99.8316 132.087 97.9659 130.184 95.6646 130.184C93.3632 130.184 91.4976 132.087 91.4976 134.436C91.4976 136.784 93.3632 138.688 95.6646 138.688Z" fill="#3F3D56"/>
<path id="Vector_85" d="M110.06 138.688C112.361 138.688 114.227 136.784 114.227 134.436C114.227 132.087 112.361 130.184 110.06 130.184C107.758 130.184 105.893 132.087 105.893 134.436C105.893 136.784 107.758 138.688 110.06 138.688Z" fill="#3F3D56"/>
<path id="Vector_86" d="M239.23 131.235H229.006C228.803 131.24 228.611 131.323 228.47 131.468C228.329 131.612 228.25 131.806 228.25 132.008C228.25 132.209 228.329 132.403 228.47 132.548C228.611 132.692 228.803 132.775 229.006 132.78H239.23C239.433 132.777 239.627 132.694 239.77 132.55C239.913 132.405 239.993 132.211 239.993 132.008C239.993 131.805 239.913 131.61 239.77 131.465C239.627 131.321 239.433 131.238 239.23 131.235Z" fill="#3F3D56"/>
<path id="Vector_87" d="M239.23 134.136H229.005C228.803 134.14 228.611 134.224 228.469 134.368C228.328 134.513 228.249 134.706 228.249 134.908C228.249 135.11 228.328 135.304 228.469 135.449C228.611 135.593 228.803 135.676 229.005 135.681H239.23C239.433 135.678 239.628 135.596 239.771 135.451C239.914 135.307 239.994 135.112 239.994 134.908C239.994 134.705 239.914 134.51 239.771 134.365C239.628 134.221 239.433 134.138 239.23 134.136V134.136Z" fill="#3F3D56"/>
<path id="Vector_88" d="M239.23 137.037H229.006C228.803 137.041 228.611 137.125 228.47 137.269C228.329 137.414 228.25 137.607 228.25 137.809C228.25 138.011 228.329 138.205 228.47 138.349C228.611 138.493 228.803 138.577 229.006 138.581H239.23C239.433 138.579 239.627 138.496 239.77 138.351C239.913 138.207 239.993 138.012 239.993 137.809C239.993 137.606 239.913 137.411 239.77 137.267C239.627 137.122 239.433 137.04 239.23 137.037V137.037Z" fill="#3F3D56"/>
<path id="Vector_89" d="M485.716 308.323C486.025 309.22 486.61 309.996 487.388 310.54C488.166 311.084 489.097 311.368 490.046 311.351L508.598 310.874C509.555 310.856 510.48 310.529 511.235 309.942C511.99 309.355 512.534 308.54 512.787 307.619L515.412 279.599C516.343 280.02 517.357 280.228 518.38 280.207C519.268 280.185 520.143 279.988 520.955 279.629C521.767 279.269 522.5 278.753 523.113 278.11C523.725 277.468 524.204 276.711 524.524 275.883C524.843 275.056 524.996 274.173 524.973 273.287C524.951 272.4 524.754 271.527 524.394 270.716C524.033 269.906 523.516 269.174 522.872 268.563C522.229 267.952 521.47 267.473 520.641 267.154C519.812 266.836 518.928 266.683 518.04 266.705C517.631 266.704 517.224 266.746 516.824 266.832C516.39 266.362 515.861 265.989 515.274 265.736C514.686 265.483 514.051 265.355 513.411 265.362L484.874 266.097C484.637 266.106 484.402 266.135 484.17 266.184C483.544 266.301 482.951 266.55 482.429 266.914C481.908 267.279 481.471 267.751 481.148 268.298C480.824 268.845 480.622 269.456 480.555 270.087C480.487 270.719 480.557 271.358 480.757 271.961L485.716 308.323ZM515.95 277.696L517.818 271.019C518.031 270.248 518.036 269.434 517.833 268.66C517.923 268.66 518.003 268.617 518.094 268.617C519.375 268.59 520.614 269.072 521.54 269.956C522.465 270.84 523.002 272.055 523.032 273.333C523.062 274.611 522.583 275.85 521.7 276.776C520.816 277.702 519.601 278.241 518.32 278.275C517.492 278.301 516.673 278.101 515.95 277.696Z" fill="#2F2E41"/>
<path id="Vector_90" d="M484.17 266.184C484.778 269.654 491.613 272.093 499.832 271.669C507.39 271.322 513.57 268.673 514.702 265.533C514.283 265.41 513.848 265.352 513.411 265.362L484.874 266.097C484.637 266.106 484.402 266.135 484.17 266.184V266.184Z" fill="#3F3D56"/>
<path id="Vector_91" d="M501.339 292.926C501.376 292.917 501.412 292.901 501.444 292.88L505.473 290.248C505.522 290.216 505.562 290.173 505.589 290.121C505.617 290.07 505.632 290.013 505.632 289.955C505.632 289.897 505.617 289.84 505.59 289.789C505.562 289.738 505.522 289.695 505.473 289.663L501.286 286.925C501.247 286.9 501.204 286.882 501.159 286.874C501.114 286.865 501.067 286.865 501.022 286.874C500.977 286.884 500.934 286.902 500.896 286.928C500.858 286.954 500.825 286.987 500.8 287.025C500.775 287.064 500.757 287.107 500.749 287.152C500.74 287.197 500.741 287.243 500.75 287.289C500.76 287.334 500.778 287.376 500.804 287.414C500.83 287.452 500.863 287.485 500.902 287.51L504.642 289.955L501.061 292.295C500.992 292.34 500.941 292.409 500.917 292.488C500.893 292.567 500.899 292.652 500.932 292.728C500.965 292.804 501.024 292.865 501.099 292.901C501.173 292.938 501.258 292.946 501.338 292.926H501.339Z" fill="#0F9FF2"/>
<path id="Vector_92" d="M494.975 293.219C495.043 293.202 495.104 293.165 495.15 293.113C495.197 293.061 495.227 292.997 495.236 292.928C495.246 292.859 495.234 292.789 495.204 292.726C495.173 292.664 495.124 292.612 495.064 292.577L491.35 290.452L494.939 287.791C494.976 287.763 495.007 287.729 495.031 287.69C495.055 287.65 495.07 287.607 495.077 287.561C495.084 287.516 495.081 287.47 495.07 287.425C495.059 287.381 495.039 287.339 495.012 287.302C494.984 287.265 494.95 287.234 494.91 287.211C494.871 287.187 494.827 287.172 494.782 287.165C494.736 287.158 494.69 287.161 494.645 287.172C494.601 287.183 494.559 287.203 494.522 287.23L490.503 290.21C490.457 290.244 490.419 290.29 490.395 290.342C490.37 290.395 490.359 290.453 490.362 290.511C490.366 290.569 490.384 290.625 490.414 290.674C490.445 290.723 490.487 290.764 490.538 290.793L494.715 293.183C494.794 293.229 494.887 293.241 494.975 293.219V293.219Z" fill="#0F9FF2"/>
<path id="Vector_93" d="M500.938 295.233C500.972 295.224 501.004 295.211 501.034 295.192C501.073 295.168 501.108 295.137 501.135 295.1C501.162 295.063 501.182 295.021 501.192 294.976C501.203 294.932 501.205 294.885 501.198 294.84C501.191 294.795 501.175 294.751 501.151 294.712L495.44 285.34C495.392 285.261 495.314 285.204 495.224 285.182C495.133 285.161 495.038 285.175 494.959 285.224C494.88 285.272 494.823 285.349 494.801 285.439C494.779 285.529 494.794 285.624 494.842 285.704L500.553 295.076C500.592 295.14 500.65 295.189 500.72 295.217C500.789 295.246 500.866 295.251 500.938 295.233Z" fill="#0F9FF2"/>
<path id="Vector_94" d="M179.862 182.314H148.915C147.653 182.314 146.629 183.336 146.629 184.596V187.614C146.629 188.874 147.653 189.895 148.915 189.895H179.862C181.124 189.895 182.147 188.874 182.147 187.614V184.596C182.147 183.336 181.124 182.314 179.862 182.314Z" fill="#0F9FF2"/>
<path id="Vector_95" d="M195.752 158H138.248C135.902 158 134 160.425 134 163.417V170.583C134 173.575 135.902 176 138.248 176H195.752C198.098 176 200 173.575 200 170.583V163.417C200 160.425 198.098 158 195.752 158Z" fill="#0F9FF2"/>
<path id="Welcome!" d="M149.598 170L147.606 164.36H148.678L150.214 168.984H149.894L151.55 164.36H152.318L153.854 168.984H153.558L155.166 164.36H156.174L154.166 170H153.31L151.822 165.664H151.998L150.454 170H149.598ZM158.371 170.08C157.694 170.08 157.163 169.893 156.779 169.52C156.395 169.147 156.203 168.635 156.203 167.984C156.203 167.563 156.286 167.195 156.451 166.88C156.616 166.565 156.846 166.32 157.139 166.144C157.438 165.968 157.784 165.88 158.179 165.88C158.568 165.88 158.894 165.963 159.155 166.128C159.416 166.293 159.614 166.525 159.747 166.824C159.886 167.123 159.955 167.472 159.955 167.872V168.136H157.011V167.608H159.243L159.107 167.72C159.107 167.347 159.027 167.061 158.867 166.864C158.712 166.667 158.486 166.568 158.187 166.568C157.856 166.568 157.6 166.685 157.419 166.92C157.243 167.155 157.155 167.483 157.155 167.904V168.008C157.155 168.445 157.262 168.773 157.475 168.992C157.694 169.205 158 169.312 158.395 169.312C158.624 169.312 158.838 169.283 159.035 169.224C159.238 169.16 159.43 169.059 159.611 168.92L159.907 169.592C159.715 169.747 159.486 169.867 159.219 169.952C158.952 170.037 158.67 170.08 158.371 170.08ZM160.802 170V164.112H161.802V170H160.802ZM164.744 170.08C164.328 170.08 163.962 169.995 163.648 169.824C163.338 169.653 163.098 169.411 162.928 169.096C162.757 168.776 162.672 168.397 162.672 167.96C162.672 167.523 162.757 167.149 162.928 166.84C163.104 166.531 163.346 166.293 163.656 166.128C163.965 165.963 164.328 165.88 164.744 165.88C165.01 165.88 165.269 165.923 165.52 166.008C165.776 166.088 165.984 166.205 166.144 166.36L165.84 167.056C165.696 166.923 165.533 166.824 165.352 166.76C165.176 166.691 165.002 166.656 164.832 166.656C164.474 166.656 164.194 166.768 163.992 166.992C163.794 167.216 163.696 167.541 163.696 167.968C163.696 168.395 163.794 168.723 163.992 168.952C164.194 169.181 164.474 169.296 164.832 169.296C164.997 169.296 165.168 169.264 165.344 169.2C165.525 169.136 165.69 169.037 165.84 168.904L166.144 169.592C165.978 169.747 165.768 169.867 165.512 169.952C165.261 170.037 165.005 170.08 164.744 170.08ZM168.665 170.08C168.249 170.08 167.889 169.995 167.585 169.824C167.281 169.653 167.044 169.411 166.873 169.096C166.708 168.781 166.625 168.408 166.625 167.976C166.625 167.544 166.708 167.173 166.873 166.864C167.044 166.549 167.281 166.307 167.585 166.136C167.889 165.965 168.249 165.88 168.665 165.88C169.081 165.88 169.441 165.965 169.745 166.136C170.054 166.307 170.292 166.549 170.457 166.864C170.628 167.173 170.713 167.544 170.713 167.976C170.713 168.408 170.628 168.781 170.457 169.096C170.292 169.411 170.054 169.653 169.745 169.824C169.441 169.995 169.081 170.08 168.665 170.08ZM168.665 169.312C168.98 169.312 169.23 169.203 169.417 168.984C169.604 168.76 169.697 168.424 169.697 167.976C169.697 167.528 169.604 167.195 169.417 166.976C169.23 166.757 168.98 166.648 168.665 166.648C168.35 166.648 168.1 166.757 167.913 166.976C167.726 167.195 167.633 167.528 167.633 167.976C167.633 168.424 167.726 168.76 167.913 168.984C168.1 169.203 168.35 169.312 168.665 169.312ZM171.575 170V166.968C171.575 166.803 171.57 166.635 171.559 166.464C171.549 166.293 171.533 166.125 171.511 165.96H172.479L172.559 166.76H172.463C172.575 166.483 172.746 166.267 172.975 166.112C173.21 165.957 173.487 165.88 173.807 165.88C174.127 165.88 174.391 165.957 174.599 166.112C174.813 166.261 174.962 166.496 175.047 166.816H174.919C175.031 166.528 175.215 166.301 175.471 166.136C175.727 165.965 176.021 165.88 176.351 165.88C176.805 165.88 177.143 166.013 177.367 166.28C177.591 166.547 177.703 166.963 177.703 167.528V170H176.703V167.568C176.703 167.248 176.65 167.019 176.543 166.88C176.437 166.736 176.266 166.664 176.031 166.664C175.754 166.664 175.535 166.763 175.375 166.96C175.215 167.152 175.135 167.413 175.135 167.744V170H174.135V167.568C174.135 167.248 174.082 167.019 173.975 166.88C173.869 166.736 173.698 166.664 173.463 166.664C173.186 166.664 172.967 166.763 172.807 166.96C172.653 167.152 172.575 167.413 172.575 167.744V170H171.575ZM180.723 170.08C180.045 170.08 179.515 169.893 179.131 169.52C178.747 169.147 178.555 168.635 178.555 167.984C178.555 167.563 178.637 167.195 178.803 166.88C178.968 166.565 179.197 166.32 179.491 166.144C179.789 165.968 180.136 165.88 180.531 165.88C180.92 165.88 181.245 165.963 181.507 166.128C181.768 166.293 181.965 166.525 182.099 166.824C182.237 167.123 182.307 167.472 182.307 167.872V168.136H179.363V167.608H181.595L181.459 167.72C181.459 167.347 181.379 167.061 181.219 166.864C181.064 166.667 180.837 166.568 180.539 166.568C180.208 166.568 179.952 166.685 179.771 166.92C179.595 167.155 179.507 167.483 179.507 167.904V168.008C179.507 168.445 179.613 168.773 179.827 168.992C180.045 169.205 180.352 169.312 180.747 169.312C180.976 169.312 181.189 169.283 181.387 169.224C181.589 169.16 181.781 169.059 181.963 168.92L182.259 169.592C182.067 169.747 181.837 169.867 181.571 169.952C181.304 170.037 181.021 170.08 180.723 170.08ZM183.297 168.328L182.985 164.36H184.217L183.905 168.328H183.297ZM183.041 170V168.888H184.161V170H183.041Z" fill="white"/>
<path id="Vector_96" d="M197.9 197.476H130.877C129.614 197.476 128.591 198.498 128.591 199.758V202.776C128.591 204.036 129.614 205.057 130.877 205.057H197.9C199.162 205.057 200.186 204.036 200.186 202.776V199.758C200.186 198.498 199.162 197.476 197.9 197.476Z" fill="#E6E6E6"/>
<path id="Vector_97" d="M197.9 212.638H130.877C129.614 212.638 128.591 213.66 128.591 214.92V217.938C128.591 219.198 129.614 220.219 130.877 220.219H197.9C199.162 220.219 200.186 219.198 200.186 217.938V214.92C200.186 213.66 199.162 212.638 197.9 212.638Z" fill="#E6E6E6"/>
<path id="Vector_98" d="M203.582 263.41L203.733 263.888L203.741 263.904L208.311 277.771L213.567 293.75L223.457 323.78L223.553 328.444V328.46L224.288 365.985L222.251 371.072L224.544 379.413C224.544 379.413 223.489 366.805 217.833 374.045C214.63 378.16 210.883 382.37 207.808 386.317C212.289 388.127 216.843 389.764 221.468 391.229C222.467 391.548 223.473 391.851 224.48 392.154C224.696 392.218 224.911 392.281 225.127 392.345C240.46 396.871 256.311 399.414 272.292 399.912C273.123 399.936 273.938 399.952 274.728 399.968C275.008 399.976 275.28 399.984 275.551 399.984C276.446 399.992 277.333 400 278.227 400C280.033 400 281.83 399.973 283.62 399.92C296.864 399.548 310.032 397.77 322.9 394.618C322.812 389.315 322.572 383.119 322.229 376.501C322.069 373.256 318.482 369.739 318.267 366.343C318.115 363.791 321.334 361.391 321.166 358.799C320.08 342.844 318.722 348.969 317.715 337.67C317.611 336.561 317.516 335.501 317.428 334.488C316.781 327.232 316.333 322.695 316.333 322.695L320.631 295.656L327.382 253.203L326.862 252.35L326.279 252.063L290.674 234.473L288.74 229.529C288.177 228.105 287.2 226.881 285.934 226.016C284.669 225.151 283.173 224.683 281.639 224.673L258.184 224.577C256.967 224.572 255.766 224.856 254.681 225.407C253.596 225.957 252.658 226.758 251.945 227.743L245.594 236.522L203.582 263.41Z" fill="#3F3D56"/>
<path id="Vector 1" d="M255.779 225.075L257.572 216.119L282.074 215.522L283.269 225.075C283.269 225.075 278.186 224.478 269.524 224.478C260.862 224.478 255.779 225.075 255.779 225.075Z" fill="#FFB6B6"/>
<path id="Vector_99" d="M228.866 317.097L223.553 328.444L219.926 336.195L213.687 368.8L210.564 372.109L207.887 360.394L179.878 366.602C178.959 361.507 179.632 366.774 179.064 361.185C179.224 361.025 179.392 360.866 179.56 360.706C180.007 360.291 180.383 359.901 180.375 359.526C180.055 340.245 181.014 307.433 189.018 287.555C190.272 284.309 191.925 281.231 193.939 278.393C194.099 278.177 194.251 277.962 194.403 277.747C198.093 272.588 200.426 267.508 203.733 263.896V263.888C203.754 263.872 203.773 263.853 203.789 263.832C203.801 263.827 203.812 263.818 203.821 263.809L226.541 251.784L227.516 279.118L228.211 298.766L228.866 317.097Z" fill="#3F3D56"/>
<path id="Vector_100" d="M310.789 320.32L317.424 334.492L319.741 339.428L325.978 372.03L329.091 375.331L331.774 363.619L333.034 363.361L355.764 358.662L362.389 379.664C363.883 377.181 364.471 374.259 364.055 371.392C363.639 368.526 362.244 365.891 360.106 363.933C359.653 363.524 359.276 363.126 359.287 362.75C359.664 340.073 358.274 298.665 345.724 281.622C341.738 276.213 339.347 270.826 335.867 267.063C335.856 267.052 335.856 267.041 335.846 267.041L327.378 253.203L326.861 252.353L326.28 252.063L310.789 320.32Z" fill="#3F3D56"/>
<path id="Ellipse 5" d="M270.588 217.915C287.822 217.915 301.792 203.971 301.792 186.769C301.792 169.568 287.822 155.624 270.588 155.624C253.355 155.624 239.385 169.568 239.385 186.769C239.385 203.971 253.355 217.915 270.588 217.915Z" fill="#FFB6B6"/>
<path id="Vector_101" d="M312.764 165.014C312.522 164.756 312.23 164.55 311.907 164.407C311.583 164.264 311.234 164.188 310.88 164.183L311.349 162.882C311.502 162.473 311.544 162.03 311.469 161.599C311.394 161.169 311.206 160.766 310.924 160.431C310.642 160.097 310.276 159.844 309.863 159.697C309.451 159.55 309.006 159.516 308.576 159.597L306.867 159.926L307.028 158.786C307.09 158.362 307.04 157.929 306.883 157.53C306.727 157.13 306.469 156.779 306.134 156.509C305.8 156.24 305.401 156.062 304.977 155.993C304.553 155.924 304.119 155.967 303.716 156.116C303.35 156.26 302.956 156.32 302.563 156.293C302.171 156.265 301.789 156.15 301.447 155.955C301.104 155.767 300.805 155.507 300.573 155.191C300.341 154.876 300.18 154.514 300.103 154.131L299.507 151.265L299.444 151.111C296.545 146.288 290.971 142.78 284.15 141.493C278.079 140.34 271.853 140.927 265.852 141.479C263.471 141.703 260.782 141.955 258.541 143.325C256.636 144.499 255.025 146.848 255.354 149.217C249.437 147.407 243.092 151.021 239.948 155.578C236.222 161.002 235.613 167.796 235.515 173.109C235.249 185.676 237.847 195.958 243.218 203.675C243.61 204.234 243.708 205.402 244.486 205.793L244.325 205.534C245.193 205.968 246.075 206.667 245.746 207.415C244.801 209.568 251.083 214.328 255.508 215.9C263.583 218.773 274.318 218.529 281.867 217.494L282.133 215.712C284.857 215.341 286.776 214.635 287.315 213.531C288.268 212.72 289.08 211.993 289.787 211.322L289.794 211.315C289.808 211.301 289.836 211.28 289.85 211.266C293.261 208.002 294.052 206.143 294.409 203.312C294.752 200.537 294.143 197.72 293.52 195.183C306.643 197.21 288.352 181.231 300.579 178.141C300.719 178.098 300.862 178.063 301.006 178.036C301.363 177.953 301.72 177.869 302.063 177.771C303.717 177.323 305.301 176.648 306.769 175.765C310.187 173.689 311.314 170.935 313.079 167.831C313.334 167.389 313.44 166.878 313.384 166.371C313.327 165.865 313.11 165.389 312.764 165.014V165.014Z" fill="#2F2E41"/>
<path id="Vector_102" d="M380.951 322.538C380.944 323.761 380.93 325.473 380.874 327.591C380.867 327.885 380.86 328.186 380.853 328.493C380.762 332.386 380.671 335.651 380.524 339.278C380.517 339.53 380.51 339.775 380.496 340.026C380.299 345.087 379.991 350.979 379.459 360.311C378.472 377.548 376.749 362.68 375.019 368.727C374.935 369.027 374.844 369.384 374.76 369.803C374.498 371.325 374.056 372.81 373.444 374.228C372.526 374.773 371.581 375.297 370.65 375.821C367.995 377.296 365.299 378.715 362.582 380.064C361.056 380.819 359.522 381.56 357.981 382.273C357.736 382.385 357.498 382.497 357.26 382.602C349.371 386.244 341.24 389.341 332.925 391.87C331.3 392.359 329.683 392.835 328.044 393.275C326.335 393.75 324.627 394.198 322.897 394.617C310.029 397.77 296.862 399.549 283.618 399.922C281.832 399.978 280.032 399.999 278.226 399.999C277.329 399.999 276.447 399.992 275.551 399.985C275.277 399.985 275.004 399.978 274.731 399.971C273.94 399.95 273.121 399.936 272.294 399.915C256.313 399.418 240.462 396.874 225.13 392.345L224.479 392.157C223.47 391.849 222.469 391.549 221.467 391.227C216.845 389.766 212.291 388.131 207.805 386.32C204.38 384.943 200.996 383.466 197.651 381.889C197.62 381.88 197.591 381.866 197.567 381.847C196.866 381.525 196.159 381.19 195.459 380.847C195.368 380.798 195.27 380.749 195.172 380.7C192.559 379.428 189.975 378.095 187.419 376.702C185.27 371.774 182.244 370.831 180.367 366.497C179.821 365.209 179.426 363.863 179.191 362.485C179.191 362.471 179.184 362.457 179.184 362.436C179.38 365.036 178.351 357.823 179.177 362.408C179.17 362.324 179.163 362.233 179.156 362.128C179.135 361.877 179.107 361.569 179.065 361.185C176.663 337.776 176.817 311.005 175.774 288.945C175.704 287.519 175.631 286.153 175.557 284.848C175.536 284.415 175.508 283.989 175.479 283.569C175.529 283.443 175.585 283.311 175.648 283.185C175.661 283.149 175.677 283.114 175.697 283.08C175.717 283.037 175.741 282.995 175.767 282.954C175.781 282.933 175.802 282.905 175.816 282.884C175.826 282.86 175.838 282.837 175.851 282.814C175.914 282.717 175.984 282.612 176.061 282.514C176.096 282.472 176.124 282.437 176.159 282.402C176.183 282.366 176.211 282.333 176.243 282.304C176.264 282.271 176.29 282.24 176.32 282.213C176.348 282.185 176.376 282.15 176.411 282.115C176.426 282.093 176.445 282.074 176.467 282.06C176.522 281.996 176.583 281.938 176.649 281.885C176.899 281.655 177.166 281.445 177.447 281.256C177.545 281.193 177.65 281.13 177.748 281.06C178.454 280.639 179.197 280.283 179.968 279.998C180.234 279.9 180.501 279.809 180.788 279.711C180.893 279.683 180.991 279.648 181.096 279.613C181.25 279.564 181.404 279.515 181.565 279.48C182.363 279.243 183.225 279.04 184.156 278.851C184.268 278.83 184.387 278.809 184.506 278.781C184.674 278.746 184.849 278.718 185.024 278.69C185.263 278.648 185.508 278.607 185.753 278.565C187.833 278.236 190.193 277.991 192.798 277.831C193.043 277.817 193.288 277.803 193.533 277.789C193.82 277.775 194.107 277.761 194.401 277.747C194.646 277.733 194.898 277.726 195.151 277.719C195.396 277.705 195.648 277.698 195.907 277.691C196.614 277.67 197.342 277.649 198.085 277.635C200.2 277.593 202.427 277.607 204.766 277.656C205.851 277.684 206.957 277.712 208.092 277.761C208.169 277.761 208.239 277.768 208.309 277.768C209.296 277.803 210.291 277.845 211.313 277.901C212.027 277.936 212.749 277.97 213.47 278.012C214.149 278.054 214.836 278.096 215.529 278.145C216.068 278.173 216.607 278.215 217.154 278.25C217.616 278.285 218.078 278.32 218.54 278.348L219.17 278.39C219.514 278.418 219.857 278.439 220.207 278.474C220.977 278.537 221.747 278.6 222.532 278.662C223.309 278.732 224.1 278.802 224.892 278.872C225.683 278.942 226.481 279.019 227.28 279.096C227.364 279.103 227.441 279.11 227.518 279.117C228.246 279.194 228.974 279.264 229.71 279.34C229.878 279.354 230.053 279.368 230.221 279.389C230.922 279.46 231.637 279.542 232.344 279.617C232.561 279.64 232.777 279.663 232.995 279.687C233.549 279.747 234.096 279.799 234.654 279.865C235.389 279.949 236.138 280.025 236.867 280.123C237.434 280.186 238.001 280.249 238.568 280.319C239.458 280.424 240.361 280.536 241.264 280.655C241.608 280.696 241.951 280.738 242.294 280.787C244.871 281.109 247.476 281.465 250.123 281.836C254.136 282.402 258.211 283.017 262.315 283.681C266.426 284.345 270.56 285.047 274.717 285.785C275.768 285.974 276.818 286.163 277.875 286.358C278.352 286.449 278.828 286.54 279.304 286.631C280.116 286.778 280.929 286.931 281.741 287.085C282.553 287.239 283.366 287.393 284.178 287.553C285.144 287.742 286.118 287.931 287.084 288.12C293.45 289.378 299.78 290.72 305.957 292.125C306.972 292.356 307.988 292.593 308.996 292.824C311.013 293.292 313.011 293.767 314.991 294.25C315.537 294.376 316.076 294.508 316.615 294.641C317.96 294.977 319.304 295.312 320.628 295.655L320.859 295.718C321.832 295.955 322.785 296.2 323.737 296.452C325.985 297.039 328.196 297.633 330.369 298.234C331.812 298.632 333.238 299.036 334.648 299.443C336.756 300.051 338.821 300.666 340.831 301.289C341.328 301.442 341.826 301.596 342.316 301.743C343.786 302.197 345.236 302.659 346.644 303.12C347.764 303.483 348.857 303.854 349.935 304.224C351.013 304.595 352.071 304.965 353.107 305.336C353.773 305.573 354.431 305.825 355.089 306.063C356.034 306.412 356.966 306.762 357.876 307.111C358.156 307.216 358.429 307.328 358.703 307.433C358.878 307.51 359.046 307.572 359.214 307.642C359.543 307.775 359.879 307.901 360.201 308.034C360.53 308.16 360.852 308.292 361.175 308.432C361.49 308.558 361.812 308.691 362.12 308.824C362.435 308.949 362.743 309.082 363.051 309.222C363.31 309.327 363.563 309.439 363.808 309.551C364.305 309.767 364.802 309.984 365.285 310.208C365.523 310.319 365.761 310.424 366 310.536L366.546 310.788C366.623 310.83 366.7 310.865 366.777 310.9C366.952 310.984 367.134 311.074 367.309 311.158C367.715 311.347 368.114 311.55 368.507 311.738C369.032 312.004 369.543 312.27 370.033 312.528C370.53 312.794 371.014 313.06 371.476 313.318C371.553 313.36 371.623 313.402 371.7 313.444C371.805 313.5 371.91 313.563 372.015 313.619C372.372 313.821 372.715 314.031 373.058 314.234C373.731 314.646 374.368 315.052 374.963 315.457C375.096 315.548 375.222 315.639 375.355 315.723C375.797 316.037 376.217 316.345 376.609 316.659C376.609 316.666 376.609 316.666 376.616 316.666C376.749 316.764 376.875 316.869 377.001 316.967C377.106 317.065 377.218 317.149 377.323 317.246C377.687 317.561 378.023 317.861 378.332 318.169C378.435 318.264 378.533 318.364 378.626 318.47C378.667 318.503 378.704 318.541 378.738 318.581C378.878 318.721 379.004 318.861 379.123 319.001C379.141 319.02 379.158 319.041 379.172 319.064C379.34 319.259 379.494 319.455 379.641 319.651C379.711 319.749 379.788 319.847 379.851 319.944C379.935 320.063 380.019 320.189 380.089 320.308C380.152 320.406 380.208 320.511 380.264 320.609C380.413 320.86 380.54 321.125 380.643 321.398C380.721 321.584 380.785 321.776 380.832 321.972C380.885 322.157 380.925 322.346 380.951 322.538V322.538Z" fill="#2F2E41"/>
<path id="Vector_103" opacity="0.2" d="M380.951 322.538C380.944 323.761 380.93 325.473 380.874 327.591C380.867 327.885 380.853 328.185 380.846 328.493C380.776 331.464 380.671 335.133 380.524 339.278C380.517 339.53 380.51 339.775 380.496 340.026C380.3 345.087 379.992 350.979 379.459 360.311C378.472 377.548 376.749 362.68 375.02 368.727C370.216 365.777 364.949 362.687 359.319 359.514C358.304 358.941 357.279 358.365 356.245 357.788C344.984 351.518 332.407 344.947 319.277 338.44C318.758 338.181 318.233 337.922 317.715 337.671C287.638 322.831 254.808 308.397 228.211 298.765C223.078 296.906 218.176 295.228 213.568 293.753C203.862 290.657 195.473 288.49 189.016 287.553C182.293 286.575 177.651 286.924 175.774 288.944C175.704 287.519 175.631 286.153 175.557 284.848C175.529 284.415 175.501 283.989 175.473 283.569C175.516 283.454 175.572 283.344 175.626 283.234C175.634 283.217 175.64 283.201 175.648 283.185C175.661 283.149 175.678 283.114 175.697 283.08C175.717 283.037 175.741 282.995 175.767 282.954C175.79 282.905 175.818 282.858 175.851 282.814C175.914 282.716 175.984 282.612 176.061 282.514C176.118 282.44 176.178 282.37 176.243 282.304C176.264 282.27 176.29 282.24 176.32 282.213C176.348 282.185 176.376 282.15 176.411 282.115C176.426 282.093 176.445 282.074 176.467 282.059C176.522 281.996 176.583 281.937 176.649 281.885C176.899 281.655 177.166 281.445 177.447 281.256C177.545 281.193 177.651 281.13 177.749 281.06C178.454 280.639 179.197 280.283 179.969 279.997C180.235 279.9 180.501 279.809 180.788 279.711C180.893 279.683 180.991 279.648 181.096 279.613C181.25 279.564 181.404 279.515 181.565 279.48C182.363 279.243 183.225 279.04 184.156 278.851C184.436 278.795 184.73 278.739 185.025 278.69C185.263 278.648 185.508 278.606 185.753 278.565C187.833 278.236 190.193 277.991 192.798 277.831C193.043 277.817 193.288 277.803 193.533 277.789C193.82 277.775 194.107 277.761 194.401 277.747C194.647 277.733 194.899 277.726 195.151 277.719C195.396 277.705 195.648 277.698 195.907 277.691C196.614 277.67 197.343 277.649 198.085 277.635C200.2 277.6 202.427 277.614 204.766 277.663C205.851 277.684 206.958 277.719 208.092 277.768C208.162 277.768 208.239 277.775 208.309 277.775C209.297 277.803 210.298 277.852 211.313 277.901C212.028 277.935 212.749 277.97 213.47 278.012C214.149 278.054 214.836 278.096 215.529 278.145C216.068 278.173 216.607 278.215 217.154 278.25C217.616 278.285 218.078 278.32 218.54 278.348C219.094 278.39 219.647 278.432 220.207 278.474C220.977 278.537 221.748 278.599 222.532 278.662C223.309 278.732 224.101 278.802 224.892 278.872C225.683 278.942 226.482 279.019 227.28 279.096C227.364 279.103 227.441 279.11 227.518 279.117C228.246 279.194 228.975 279.264 229.71 279.34C233.786 279.753 237.98 280.235 242.294 280.787C244.871 281.116 247.481 281.468 250.123 281.843C254.136 282.409 258.212 283.024 262.315 283.681C266.426 284.345 270.56 285.046 274.717 285.785C275.768 285.974 276.818 286.163 277.876 286.358C279.164 286.596 280.453 286.838 281.741 287.085C282.554 287.239 283.366 287.393 284.178 287.553C285.145 287.742 286.118 287.931 287.084 288.12C293.45 289.378 299.781 290.72 305.957 292.125C306.973 292.355 307.988 292.593 308.996 292.824C311.013 293.292 313.011 293.767 314.991 294.25C315.537 294.383 316.076 294.515 316.616 294.648C317.967 294.984 319.305 295.319 320.628 295.655V295.662C320.705 295.676 320.782 295.697 320.859 295.718C321.826 295.962 322.785 296.207 323.737 296.459C325.985 297.046 328.196 297.637 330.369 298.234C331.812 298.639 333.24 299.038 334.648 299.443C336.756 300.058 338.822 300.673 340.831 301.289C341.329 301.442 341.826 301.596 342.316 301.743C343.787 302.204 345.229 302.663 346.644 303.12C347.764 303.483 348.857 303.854 349.935 304.224C351.014 304.595 352.071 304.965 353.108 305.336C353.78 305.573 354.438 305.818 355.089 306.056C356.042 306.405 356.966 306.755 357.876 307.111C358.157 307.216 358.43 307.328 358.703 307.433C359.214 307.628 359.711 307.831 360.201 308.034C360.531 308.16 360.853 308.292 361.175 308.432C361.49 308.558 361.812 308.691 362.12 308.824C362.435 308.949 362.743 309.082 363.052 309.222C363.311 309.327 363.563 309.439 363.808 309.551C364.305 309.767 364.802 309.984 365.286 310.208C365.524 310.319 365.762 310.424 366 310.536L366.546 310.788C366.623 310.83 366.7 310.865 366.777 310.9C367.372 311.179 367.947 311.459 368.507 311.738C369.032 312.004 369.543 312.27 370.033 312.528C370.615 312.836 371.168 313.136 371.7 313.444C371.805 313.5 371.91 313.563 372.015 313.619C372.372 313.821 372.716 314.031 373.059 314.234C373.731 314.646 374.368 315.052 374.963 315.457C375.552 315.862 376.098 316.261 376.609 316.659C376.609 316.666 376.609 316.666 376.616 316.666C376.861 316.862 377.099 317.058 377.323 317.246C377.688 317.561 378.024 317.861 378.332 318.169C378.435 318.264 378.533 318.364 378.626 318.47C378.667 318.503 378.704 318.541 378.738 318.581C378.885 318.742 379.032 318.903 379.172 319.064C379.34 319.259 379.494 319.455 379.641 319.651C379.711 319.749 379.788 319.847 379.852 319.944C379.936 320.063 380.02 320.189 380.09 320.308C380.153 320.406 380.209 320.511 380.265 320.608C380.413 320.86 380.54 321.125 380.643 321.398C380.719 321.585 380.783 321.776 380.832 321.971C380.885 322.157 380.925 322.346 380.951 322.538V322.538Z" fill="black"/>
<g id="logo">
<path id="shambel" d="M76.8915 155.307C75.2668 155.076 73.9246 155.301 72.5286 156.302C71.4651 157.065 70.675 158.278 70.675 159.741C70.675 161.161 70.6439 161.755 71.4694 162.915C72.1095 163.815 73.0991 163.967 74.1628 164.238C75.5044 164.58 76.5388 164.253 77.8247 164.767C79.1487 165.296 79.9432 167.027 79.9432 168.111C79.9432 169.788 78.7822 170.37 77.3133 170.784C76.602 170.985 75.2988 170.535 74.6471 170.188C73.853 169.766 73.4492 168.739 73.4492 168.739C73.4492 168.739 72.3395 168.696 71.7343 169C71.1408 169.298 70.5186 170.188 70.5186 170.188C70.5186 170.188 70.9883 171.722 71.9839 172.563C73.1384 173.539 74.891 174.342 76.4068 174.28C78.3208 174.202 80.1152 173.841 81.5319 172.563C82.977 171.26 83.3847 169.878 83.3855 167.942C83.3863 166.004 82.3024 164.078 80.7376 162.915C79.6067 162.075 78.7737 161.839 77.2951 161.593C75.8165 161.346 76.5007 161.593 74.6471 161.328C73.616 161.181 73.4755 159.221 74.1628 158.683C75.1766 157.889 75.9711 157.889 77.2951 158.154C78.5828 158.411 79.9431 158.947 79.9431 158.947C79.9431 158.947 80.5743 158.469 80.7376 157.889C80.9055 157.293 80.7376 156.302 80.7376 156.302C80.7376 156.302 78.4591 155.53 76.8915 155.307Z" fill="#3F3D56"/>
<g id="amare">
<path d="M87.3575 158.832L81.5319 156.302C81.5319 156.302 81.7163 157.66 81.5319 158.154C81.2671 158.862 80.4727 159.212 80.4727 159.212L87.3575 162.271V158.832Z" fill="#0F9FF2"/>
<path d="M90.0386 160.005L100.862 165.032L100.893 169.98C100.893 169.98 83.1517 173.684 83.1207 173.497C83.0897 173.31 84.1799 172.439 84.4447 171.645C84.7095 170.851 84.9743 169.793 84.9743 169.793L87.3575 169.264V163.709L90.0386 164.767V168.728L97.9496 167.148L90.0386 163.444V160.005Z" fill="#0F9FF2"/>
</g>
</g>
</g>
<defs>
<clipPath id="clip0_2577_824">
<rect width="551" height="400" fill="white"/>
</clipPath>
</defs>
</svg>
