<svg width="64" height="41" viewBox="0 0 64 41" fill="none" xmlns="http://www.w3.org/2000/svg">
<g id="logo">
<path id="shambel" d="M13.5659 1.13724C10.1597 0.651875 7.34555 1.12403 4.41885 3.22488C2.18909 4.82545 0.532601 7.37212 0.532601 10.4422C0.532601 13.423 0.467437 14.67 2.19814 17.1044C3.54012 18.992 5.61498 19.311 7.845 19.8804C10.6578 20.5985 12.8265 19.9125 15.5224 20.9907C18.2983 22.101 19.964 25.7335 19.964 28.0094C19.964 31.5282 17.53 32.7488 14.4504 33.619C12.959 34.0405 10.2267 33.0959 8.86045 32.3683C7.19542 31.4815 6.34891 29.3255 6.34891 29.3255C6.34891 29.3255 4.02228 29.2353 2.75348 29.8736C1.50924 30.4996 0.20459 32.3683 0.20459 32.3683C0.20459 32.3683 1.18936 35.5875 3.27675 37.3526C5.69726 39.3993 9.37177 41.0847 12.5497 40.9554C16.5627 40.7922 20.3246 40.0343 23.2949 37.3526C26.3247 34.6171 27.1795 31.7167 27.1812 27.6527C27.1828 23.5855 24.9103 19.5439 21.6296 17.1045C19.2585 15.3415 17.512 14.8451 14.4121 14.3285C11.3121 13.8118 12.7465 14.3285 8.86045 13.7734C6.69869 13.4646 6.40398 9.35073 7.845 8.22162C9.97064 6.55608 11.6362 6.55608 14.4121 7.11112C17.112 7.65095 19.9639 8.77665 19.9639 8.77665C19.9639 8.77665 21.2873 7.77322 21.6296 6.55608C21.9817 5.30379 21.6296 3.22501 21.6296 3.22501C21.6296 3.22501 16.8526 1.60558 13.5659 1.13724Z" fill="#367CFF"/>
<g id="amare">
<path d="M35.5089 8.53501L23.2949 3.22461C23.2949 3.22461 23.6816 6.07516 23.2949 7.11086C22.7398 8.59795 21.0742 9.33157 21.0742 9.33157L35.5089 15.7523V8.53501Z" fill="#5A4FF3"/>
<path d="M41.1301 10.9971L63.823 21.5455L63.888 31.9313C63.888 31.9313 26.691 39.7038 26.626 39.3112C26.561 38.9186 28.8467 37.0905 29.4019 35.425C29.9571 33.7594 30.5123 31.5387 30.5123 31.5387L35.5089 30.4284V18.7696L41.1301 20.9903V29.3041L57.716 25.9869L41.1301 18.2144V10.9971Z" fill="#5A4FF3"/>
</g>
</g>
</svg>
