<svg width="96" height="60" viewBox="0 0 96 60" fill="none" xmlns="http://www.w3.org/2000/svg">
<g id="logo">
<path id="shambel" d="M20.042 0.262253C14.9327 -0.465792 10.7114 0.242445 6.32139 3.39372C2.97675 5.79458 0.492016 9.61457 0.492016 14.2197C0.492016 18.6909 0.394271 20.5613 2.99032 24.2129C5.0033 27.0444 8.11559 27.5229 11.4606 28.377C15.6798 29.4542 18.9329 28.4251 22.9768 30.0425C27.1406 31.7078 29.6392 37.1566 29.6392 40.5705C29.6392 45.8488 25.9881 47.6796 21.3687 48.9849C19.1317 49.6171 15.0331 48.2003 12.9838 47.1088C10.4862 45.7787 9.21648 42.5446 9.21648 42.5446C9.21648 42.5446 5.72654 42.4093 3.82333 43.3668C1.95697 44.3057 0 47.1088 0 47.1088C0 47.1088 1.47716 51.9377 4.60824 54.5852C8.23901 57.6554 13.7508 60.1834 18.5177 59.9895C24.5371 59.7447 30.1801 58.6078 34.6355 54.5852C39.1802 50.4821 40.4624 46.1314 40.4649 40.0355C40.4674 33.9347 37.0586 27.8722 32.1375 24.2131C28.5809 21.5686 25.9612 20.8241 21.3112 20.0491C16.6613 19.2741 18.8129 20.0491 12.9838 19.2165C9.74115 18.7534 9.29909 12.5825 11.4606 10.8888C14.6491 8.39052 17.1474 8.39052 21.3112 9.22307C25.3611 10.0328 29.6389 11.7214 29.6389 11.7214C29.6389 11.7214 31.6241 10.2162 32.1375 8.39052C32.6657 6.51208 32.1375 3.39391 32.1375 3.39391C32.1375 3.39391 24.9721 0.964767 20.042 0.262253Z" fill="#3F3D56"/>
<g id="amare">
<path d="M52.9562 11.3589L34.6353 3.39331C34.6353 3.39331 35.2153 7.66914 34.6353 9.22269C33.8025 11.4533 31.3042 12.5538 31.3042 12.5538L52.9562 22.1849V11.3589Z" fill="#0F9FF2"/>
<path d="M61.3879 15.0521L95.4273 30.8747L95.5249 46.4534C95.5249 46.4534 39.7294 58.1122 39.6319 57.5232C39.5343 56.9343 42.963 54.1922 43.7957 51.6939C44.6285 49.1956 45.4613 45.8645 45.4613 45.8645L52.9562 44.1989V26.7108L61.3879 30.0419V42.5126L86.2669 37.5368L61.3879 25.878V15.0521Z" fill="#0F9FF2"/>
</g>
</g>
</svg>
